<svg width="40" height="40" viewBox="0 0 40 40" fill="none" xmlns="http://www.w3.org/2000/svg">
<g clip-path="url(#clip0_9_90)">
<path d="M38.7647 26.9999L34.4314 11.3816C33.5061 8.0406 31.4898 5.10514 28.7035 3.04238C25.9173 0.979621 22.5211 -0.091893 19.0555 -0.00162692C15.59 0.0886392 12.2542 1.3355 9.57904 3.54051C6.90393 5.74552 5.04322 8.78196 4.29307 12.1666L0.941404 27.2499C0.779225 27.9806 0.783181 28.7385 0.952979 29.4675C1.12278 30.1965 1.45409 30.8781 1.92246 31.4619C2.39084 32.0458 2.98433 32.517 3.65914 32.8409C4.33396 33.1648 5.07289 33.3331 5.8214 33.3332H11.8331C12.2156 35.2171 13.2376 36.9107 14.726 38.1272C16.2143 39.3437 18.0775 40.0083 19.9997 40.0083C21.922 40.0083 23.7851 39.3437 25.2735 38.1272C26.7619 36.9107 27.7839 35.2171 28.1664 33.3332H33.9497C34.7199 33.3329 35.4796 33.1546 36.1695 32.8123C36.8595 32.4701 37.461 31.973 37.9273 31.36C38.3935 30.7469 38.7118 30.0345 38.8574 29.2782C39.0029 28.5219 38.9718 27.7422 38.7664 26.9999H38.7647ZM19.9997 36.6666C18.9693 36.6623 17.9654 36.3398 17.1252 35.7431C16.2851 35.1464 15.6499 34.3048 15.3064 33.3332H24.6931C24.3496 34.3048 23.7143 35.1464 22.8742 35.7431C22.0341 36.3398 21.0302 36.6623 19.9997 36.6666V36.6666ZM35.2747 29.3416C35.1193 29.5477 34.9177 29.7146 34.6862 29.8289C34.4547 29.9432 34.1996 30.0018 33.9414 29.9999H5.8214C5.57184 29.9999 5.32547 29.9438 5.10048 29.8358C4.87549 29.7278 4.67763 29.5706 4.52149 29.376C4.36536 29.1813 4.25494 28.954 4.19838 28.7109C4.14183 28.4679 4.14058 28.2152 4.19474 27.9716L7.5464 12.8882C8.13699 10.2319 9.59858 7.84924 11.6988 6.11898C13.7991 4.38872 16.4174 3.41019 19.1377 3.33892C21.8579 3.26766 24.524 4.10776 26.7119 5.72568C28.8999 7.3436 30.4842 9.64648 31.2131 12.2682L35.5464 27.8866C35.6172 28.1335 35.6294 28.3936 35.5823 28.6461C35.5351 28.8987 35.4298 29.1368 35.2747 29.3416V29.3416Z" fill="white"/>
</g>
<defs>
<clipPath id="clip0_9_90">
<rect width="40" height="40" fill="white"/>
</clipPath>
</defs>
</svg>
