<svg width="40" height="40" viewBox="0 0 40 40" fill="none" xmlns="http://www.w3.org/2000/svg">
<g clip-path="url(#clip0_9_92)">
<path d="M40 26.6667V40H26.6667C24.3285 39.9976 22.0321 39.3804 20.0078 38.2103C17.9834 37.0401 16.3024 35.3582 15.1333 33.3333C16.3898 33.3243 17.642 33.1858 18.87 32.92C19.8052 34.0894 20.9917 35.0334 22.3413 35.6819C23.691 36.3305 25.1693 36.6671 26.6667 36.6667H36.6667V26.6667C36.6663 25.1687 36.3287 23.6901 35.6789 22.3404C35.0292 20.9907 34.084 19.8046 32.9133 18.87C33.1814 17.6422 33.3222 16.39 33.3333 15.1333C35.3582 16.3024 37.0401 17.9834 38.2103 20.0078C39.3804 22.0321 39.9976 24.3285 40 26.6667ZM30 15C30 11.0218 28.4196 7.20644 25.6066 4.3934C22.7936 1.58035 18.9782 0 15 0C11.0218 0 7.20644 1.58035 4.3934 4.3934C1.58035 7.20644 0 11.0218 0 15L0 30H15C18.9769 29.9956 22.7896 28.4138 25.6017 25.6017C28.4138 22.7896 29.9956 18.9769 30 15V15ZM3.33333 15C3.33333 12.6926 4.01757 10.4369 5.29952 8.51835C6.58147 6.59977 8.40356 5.10443 10.5354 4.22141C12.6672 3.33838 15.0129 3.10734 17.2761 3.55751C19.5392 4.00767 21.618 5.11881 23.2496 6.75042C24.8812 8.38203 25.9923 10.4608 26.4425 12.7239C26.8927 14.9871 26.6616 17.3328 25.7786 19.4646C24.8956 21.5964 23.4002 23.4185 21.4817 24.7005C19.5631 25.9824 17.3074 26.6667 15 26.6667H3.33333V15Z" fill="white"/>
</g>
<defs>
<clipPath id="clip0_9_92">
<rect width="40" height="40" fill="white"/>
</clipPath>
</defs>
</svg>
