<svg width="128" height="128" viewBox="0 0 128 128" fill="none" xmlns="http://www.w3.org/2000/svg">
<g clip-path="url(#clip0_34_469)">
<path d="M27.0012 58.0334C28.7047 59.7369 31.4667 59.7369 33.1702 58.0334C34.8738 56.3298 34.8738 53.5679 33.1702 51.8643C31.4667 50.1608 28.7047 50.1608 27.0012 51.8643C25.2976 53.5679 25.2976 56.3298 27.0012 58.0334Z" fill="url(#paint0_radial_34_469)"/>
<path d="M69.2459 100.326C70.9495 102.029 73.7114 102.029 75.415 100.326C77.1185 98.6223 77.1185 95.8603 75.415 94.1568C73.7114 92.4533 70.9495 92.4533 69.2459 94.1568C67.5424 95.8603 67.5424 98.6223 69.2459 100.326Z" fill="url(#paint1_radial_34_469)"/>
<path d="M69.2459 100.326C70.9495 102.029 73.7114 102.029 75.415 100.326C77.1185 98.6223 77.1185 95.8603 75.415 94.1568C73.7114 92.4533 70.9495 92.4533 69.2459 94.1568C67.5424 95.8603 67.5424 98.6223 69.2459 100.326Z" fill="url(#paint2_radial_34_469)"/>
<path d="M57.5243 41.9446C54.5412 42.5412 51.2359 44.1083 50.0029 44.7407L51.3095 52.7573L59.3758 51.8107C59.705 50.2118 59.9869 48.6035 60.2211 46.988C60.3621 45.7226 60.4391 44.4508 60.4518 43.1776L57.5243 41.9446Z" fill="url(#paint3_radial_34_469)"/>
<path d="M57.5243 41.9446C54.5412 42.5412 51.2359 44.1083 50.0029 44.7407L51.3095 52.7573L59.3758 51.8107C59.705 50.2118 59.9869 48.6035 60.2211 46.988C60.3621 45.7226 60.4391 44.4508 60.4518 43.1776L57.5243 41.9446Z" fill="url(#paint4_radial_34_469)"/>
<path d="M85.3349 69.755C84.7382 72.7381 83.1711 76.0434 82.5387 77.2764L74.5221 75.9698L75.4687 67.9035C76.5367 67.6787 78.9749 67.2333 80.2914 67.0582C81.61 66.8852 83.3859 66.8355 84.1018 66.8276L85.3349 69.755Z" fill="url(#paint5_radial_34_469)"/>
<path d="M85.3349 69.755C84.7382 72.7381 83.1711 76.0434 82.5387 77.2764L74.5221 75.9698L75.4687 67.9035C76.5367 67.6787 78.9749 67.2333 80.2914 67.0582C81.61 66.8852 83.3859 66.8355 84.1018 66.8276L85.3349 69.755Z" fill="url(#paint6_radial_34_469)"/>
<path d="M85.3349 69.755C84.7382 72.7381 83.1711 76.0434 82.5387 77.2764L74.5221 75.9698L75.4687 67.9035C76.5367 67.6787 78.9749 67.2333 80.2914 67.0582C81.61 66.8852 83.3859 66.8355 84.1018 66.8276L85.3349 69.755Z" fill="url(#paint7_radial_34_469)"/>
<g filter="url(#filter0_ii_34_469)">
<path d="M45.6853 30.384L21.7151 66.7083C21.1443 67.5742 20.8902 68.6107 20.9956 69.6424C21.1011 70.6741 21.5597 71.6377 22.2938 72.3702L54.9091 104.986C55.6425 105.719 56.6069 106.177 57.639 106.281C58.6711 106.386 59.7076 106.13 60.573 105.558L96.8953 81.59L95.885 78.6547C90.7899 77.8472 80.2118 76.0633 77.6543 75.4309C75.6138 74.9258 75.6954 72.5055 75.8087 71.9069C76.8488 66.4239 78.2071 58.284 78.6069 55.3467C79.0205 52.3397 78.3961 50.0288 77.8929 49.3824C77.2466 48.8793 74.9357 48.2548 71.9267 48.6665C68.9913 49.0682 60.8534 50.4285 55.3685 51.4666C54.7699 51.58 52.3476 51.6635 51.8444 49.6211C51.212 47.0636 49.4281 36.4855 48.6207 31.3903L45.6853 30.384Z" fill="url(#paint8_linear_34_469)"/>
<path d="M45.6853 30.384L21.7151 66.7083C21.1443 67.5742 20.8902 68.6107 20.9956 69.6424C21.1011 70.6741 21.5597 71.6377 22.2938 72.3702L54.9091 104.986C55.6425 105.719 56.6069 106.177 57.639 106.281C58.6711 106.386 59.7076 106.13 60.573 105.558L96.8953 81.59L95.885 78.6547C90.7899 77.8472 80.2118 76.0633 77.6543 75.4309C75.6138 74.9258 75.6954 72.5055 75.8087 71.9069C76.8488 66.4239 78.2071 58.284 78.6069 55.3467C79.0205 52.3397 78.3961 50.0288 77.8929 49.3824C77.2466 48.8793 74.9357 48.2548 71.9267 48.6665C68.9913 49.0682 60.8534 50.4285 55.3685 51.4666C54.7699 51.58 52.3476 51.6635 51.8444 49.6211C51.212 47.0636 49.4281 36.4855 48.6207 31.3903L45.6853 30.384Z" fill="url(#paint9_radial_34_469)"/>
</g>
<path d="M45.6853 30.384L21.7151 66.7083C21.1443 67.5742 20.8902 68.6107 20.9956 69.6424C21.1011 70.6741 21.5597 71.6377 22.2938 72.3702L54.9091 104.986C55.6425 105.719 56.6069 106.177 57.639 106.281C58.6711 106.386 59.7076 106.13 60.573 105.558L96.8953 81.59L95.885 78.6547C90.7899 77.8472 80.2118 76.0633 77.6543 75.4309C75.6138 74.9258 75.6954 72.5055 75.8087 71.9069C76.8488 66.4239 78.2071 58.284 78.6069 55.3467C79.0205 52.3397 78.3961 50.0288 77.8929 49.3824C77.2466 48.8793 74.9357 48.2548 71.9267 48.6665C68.9913 49.0682 60.8534 50.4285 55.3685 51.4666C54.7699 51.58 52.3476 51.6635 51.8444 49.6211C51.212 47.0636 49.4281 36.4855 48.6207 31.3903L45.6853 30.384Z" fill="url(#paint10_linear_34_469)"/>
<path d="M45.6853 30.384L21.7151 66.7083C21.1443 67.5742 20.8902 68.6107 20.9956 69.6424C21.1011 70.6741 21.5597 71.6377 22.2938 72.3702L54.9091 104.986C55.6425 105.719 56.6069 106.177 57.639 106.281C58.6711 106.386 59.7076 106.13 60.573 105.558L96.8953 81.59L95.885 78.6547C90.7899 77.8472 80.2118 76.0633 77.6543 75.4309C75.6138 74.9258 75.6954 72.5055 75.8087 71.9069C76.8488 66.4239 78.2071 58.284 78.6069 55.3467C79.0205 52.3397 78.3961 50.0288 77.8929 49.3824C77.2466 48.8793 74.9357 48.2548 71.9267 48.6665C68.9913 49.0682 60.8534 50.4285 55.3685 51.4666C54.7699 51.58 52.3476 51.6635 51.8444 49.6211C51.212 47.0636 49.4281 36.4855 48.6207 31.3903L45.6853 30.384Z" fill="url(#paint11_linear_34_469)"/>
<path d="M45.6853 30.384L21.7151 66.7083C21.1443 67.5742 20.8902 68.6107 20.9956 69.6424C21.1011 70.6741 21.5597 71.6377 22.2938 72.3702L54.9091 104.986C55.6425 105.719 56.6069 106.177 57.639 106.281C58.6711 106.386 59.7076 106.13 60.573 105.558L96.8953 81.59L95.885 78.6547C90.7899 77.8472 80.2118 76.0633 77.6543 75.4309C75.6138 74.9258 75.6954 72.5055 75.8087 71.9069C76.8488 66.4239 78.2071 58.284 78.6069 55.3467C79.0205 52.3397 78.3961 50.0288 77.8929 49.3824C77.2466 48.8793 74.9357 48.2548 71.9267 48.6665C68.9913 49.0682 60.8534 50.4285 55.3685 51.4666C54.7699 51.58 52.3476 51.6635 51.8444 49.6211C51.212 47.0636 49.4281 36.4855 48.6207 31.3903L45.6853 30.384Z" fill="url(#paint12_linear_34_469)"/>
<path d="M45.6853 30.384L21.7151 66.7083C21.1443 67.5742 20.8902 68.6107 20.9956 69.6424C21.1011 70.6741 21.5597 71.6377 22.2938 72.3702L54.9091 104.986C55.6425 105.719 56.6069 106.177 57.639 106.281C58.6711 106.386 59.7076 106.13 60.573 105.558L96.8953 81.59L95.885 78.6547C90.7899 77.8472 80.2118 76.0633 77.6543 75.4309C75.6138 74.9258 75.6954 72.5055 75.8087 71.9069C76.8488 66.4239 78.2071 58.284 78.6069 55.3467C79.0205 52.3397 78.3961 50.0288 77.8929 49.3824C77.2466 48.8793 74.9357 48.2548 71.9267 48.6665C68.9913 49.0682 60.8534 50.4285 55.3685 51.4666C54.7699 51.58 52.3476 51.6635 51.8444 49.6211C51.212 47.0636 49.4281 36.4855 48.6207 31.3903L45.6853 30.384Z" fill="url(#paint13_radial_34_469)"/>
<path d="M45.6853 30.384L21.7151 66.7083C21.1443 67.5742 20.8902 68.6107 20.9956 69.6424C21.1011 70.6741 21.5597 71.6377 22.2938 72.3702L54.9091 104.986C55.6425 105.719 56.6069 106.177 57.639 106.281C58.6711 106.386 59.7076 106.13 60.573 105.558L96.8953 81.59L95.885 78.6547C90.7899 77.8472 80.2118 76.0633 77.6543 75.4309C75.6138 74.9258 75.6954 72.5055 75.8087 71.9069C76.8488 66.4239 78.2071 58.284 78.6069 55.3467C79.0205 52.3397 78.3961 50.0288 77.8929 49.3824C77.2466 48.8793 74.9357 48.2548 71.9267 48.6665C68.9913 49.0682 60.8534 50.4285 55.3685 51.4666C54.7699 51.58 52.3476 51.6635 51.8444 49.6211C51.212 47.0636 49.4281 36.4855 48.6207 31.3903L45.6853 30.384Z" fill="url(#paint14_radial_34_469)"/>
<path d="M45.6853 30.384L21.7151 66.7083C21.1443 67.5742 20.8902 68.6107 20.9956 69.6424C21.1011 70.6741 21.5597 71.6377 22.2938 72.3702L54.9091 104.986C55.6425 105.719 56.6069 106.177 57.639 106.281C58.6711 106.386 59.7076 106.13 60.573 105.558L96.8953 81.59L95.885 78.6547C90.7899 77.8472 80.2118 76.0633 77.6543 75.4309C75.6138 74.9258 75.6954 72.5055 75.8087 71.9069C76.8488 66.4239 78.2071 58.284 78.6069 55.3467C79.0205 52.3397 78.3961 50.0288 77.8929 49.3824C77.2466 48.8793 74.9357 48.2548 71.9267 48.6665C68.9913 49.0682 60.8534 50.4285 55.3685 51.4666C54.7699 51.58 52.3476 51.6635 51.8444 49.6211C51.212 47.0636 49.4281 36.4855 48.6207 31.3903L45.6853 30.384Z" fill="url(#paint15_radial_34_469)"/>
<g filter="url(#filter1_di_34_469)">
<path d="M65.702 92.5221C63.5542 93.612 61.0483 92.729 59.9565 90.5831C59.2326 88.8649 60.0997 86.9437 62.2456 85.8519C64.3934 84.7581 66.9827 85.49 67.6629 86.8224C68.7547 88.9683 67.8478 91.4263 65.702 92.5221Z" fill="url(#paint16_radial_34_469)"/>
<path d="M65.702 92.5221C63.5542 93.612 61.0483 92.729 59.9565 90.5831C59.2326 88.8649 60.0997 86.9437 62.2456 85.8519C64.3934 84.7581 66.9827 85.49 67.6629 86.8224C68.7547 88.9683 67.8478 91.4263 65.702 92.5221Z" fill="url(#paint17_radial_34_469)"/>
</g>
<g filter="url(#filter2_di_34_469)">
<path d="M34.9103 61.7305C33.8185 63.8763 34.7015 66.3821 36.8494 67.476C38.5656 68.1979 40.4868 67.3308 41.5786 65.1849C42.6724 63.0371 41.9405 60.4477 40.6101 59.7696C38.4622 58.6758 36.0041 59.5826 34.9103 61.7305Z" fill="url(#paint18_radial_34_469)"/>
<path d="M34.9103 61.7305C33.8185 63.8763 34.7015 66.3821 36.8494 67.476C38.5656 68.1979 40.4868 67.3308 41.5786 65.1849C42.6724 63.0371 41.9405 60.4477 40.6101 59.7696C38.4622 58.6758 36.0041 59.5826 34.9103 61.7305Z" fill="url(#paint19_radial_34_469)"/>
</g>
<path d="M49.7125 33.5044C48.9791 34.2378 47.9844 34.6498 46.9472 34.6498C45.91 34.6498 44.9152 34.2378 44.1818 33.5044C43.4484 32.771 43.0364 31.7762 43.0364 30.739C43.0364 29.7018 43.4484 28.7071 44.1818 27.9737C44.915 27.2405 45.9093 26.8287 46.9462 26.8287C47.983 26.8287 48.9774 27.2405 49.7105 27.9737C50.4437 28.7068 50.8555 29.7012 50.8555 30.738C50.8555 31.7749 50.4457 32.7712 49.7125 33.5044Z" fill="url(#paint20_radial_34_469)"/>
<path d="M49.7125 33.5044C48.9791 34.2378 47.9844 34.6498 46.9472 34.6498C45.91 34.6498 44.9152 34.2378 44.1818 33.5044C43.4484 32.771 43.0364 31.7762 43.0364 30.739C43.0364 29.7018 43.4484 28.7071 44.1818 27.9737C44.915 27.2405 45.9093 26.8287 46.9462 26.8287C47.983 26.8287 48.9774 27.2405 49.7105 27.9737C50.4437 28.7068 50.8555 29.7012 50.8555 30.738C50.8555 31.7749 50.4457 32.7712 49.7125 33.5044Z" fill="url(#paint21_radial_34_469)"/>
<path d="M49.7125 33.5044C48.9791 34.2378 47.9844 34.6498 46.9472 34.6498C45.91 34.6498 44.9152 34.2378 44.1818 33.5044C43.4484 32.771 43.0364 31.7762 43.0364 30.739C43.0364 29.7018 43.4484 28.7071 44.1818 27.9737C44.915 27.2405 45.9093 26.8287 46.9462 26.8287C47.983 26.8287 48.9774 27.2405 49.7105 27.9737C50.4437 28.7068 50.8555 29.7012 50.8555 30.738C50.8555 31.7749 50.4457 32.7712 49.7125 33.5044Z" fill="url(#paint22_radial_34_469)"/>
<path d="M49.7125 33.5044C48.9791 34.2378 47.9844 34.6498 46.9472 34.6498C45.91 34.6498 44.9152 34.2378 44.1818 33.5044C43.4484 32.771 43.0364 31.7762 43.0364 30.739C43.0364 29.7018 43.4484 28.7071 44.1818 27.9737C44.915 27.2405 45.9093 26.8287 46.9462 26.8287C47.983 26.8287 48.9774 27.2405 49.7105 27.9737C50.4437 28.7068 50.8555 29.7012 50.8555 30.738C50.8555 31.7749 50.4457 32.7712 49.7125 33.5044Z" fill="url(#paint23_radial_34_469)"/>
<path d="M59.8611 44.6671C60.6984 44.8858 61.5846 44.8205 62.3808 44.4815C63.177 44.1424 63.8382 43.5487 64.2608 42.7935C64.6833 42.0383 64.8434 41.1642 64.7158 40.3083C64.5882 39.4523 64.1802 38.6629 63.5558 38.0638C62.9313 37.4646 62.1257 37.0896 61.2653 36.9975C60.4048 36.9054 59.5381 37.1014 58.8009 37.5548C58.0638 38.0081 57.498 38.6933 57.1921 39.5028C56.8862 40.3124 56.8576 41.2005 57.1107 42.0281C57.4795 42.1918 57.7856 42.4701 57.9838 42.8216C58.286 43.3705 58.831 44.2256 59.8631 44.6691" fill="url(#paint24_radial_34_469)"/>
<path d="M59.8611 44.6671C60.6984 44.8858 61.5846 44.8205 62.3808 44.4815C63.177 44.1424 63.8382 43.5487 64.2608 42.7935C64.6833 42.0383 64.8434 41.1642 64.7158 40.3083C64.5882 39.4523 64.1802 38.6629 63.5558 38.0638C62.9313 37.4646 62.1257 37.0896 61.2653 36.9975C60.4048 36.9054 59.5381 37.1014 58.8009 37.5548C58.0638 38.0081 57.498 38.6933 57.1921 39.5028C56.8862 40.3124 56.8576 41.2005 57.1107 42.0281C57.4795 42.1918 57.7856 42.4701 57.9838 42.8216C58.286 43.3705 58.831 44.2256 59.8631 44.6691" fill="url(#paint25_radial_34_469)"/>
<path d="M59.8611 44.6671C60.6984 44.8858 61.5846 44.8205 62.3808 44.4815C63.177 44.1424 63.8382 43.5487 64.2608 42.7935C64.6833 42.0383 64.8434 41.1642 64.7158 40.3083C64.5882 39.4523 64.1802 38.6629 63.5558 38.0638C62.9313 37.4646 62.1257 37.0896 61.2653 36.9975C60.4048 36.9054 59.5381 37.1014 58.8009 37.5548C58.0638 38.0081 57.498 38.6933 57.1921 39.5028C56.8862 40.3124 56.8576 41.2005 57.1107 42.0281C57.4795 42.1918 57.7856 42.4701 57.9838 42.8216C58.286 43.3705 58.831 44.2256 59.8631 44.6691" fill="url(#paint26_radial_34_469)"/>
<path d="M59.8611 44.6671C60.6984 44.8858 61.5846 44.8205 62.3808 44.4815C63.177 44.1424 63.8382 43.5487 64.2608 42.7935C64.6833 42.0383 64.8434 41.1642 64.7158 40.3083C64.5882 39.4523 64.1802 38.6629 63.5558 38.0638C62.9313 37.4646 62.1257 37.0896 61.2653 36.9975C60.4048 36.9054 59.5381 37.1014 58.8009 37.5548C58.0638 38.0081 57.498 38.6933 57.1921 39.5028C56.8862 40.3124 56.8576 41.2005 57.1107 42.0281C57.4795 42.1918 57.7856 42.4701 57.9838 42.8216C58.286 43.3705 58.831 44.2256 59.8631 44.6691" fill="url(#paint27_radial_34_469)"/>
<g filter="url(#filter3_i_34_469)">
<path d="M82.6122 67.4183C82.3935 66.581 82.4588 65.6948 82.7978 64.8986C83.1369 64.1024 83.7306 63.4412 84.4858 63.0186C85.241 62.5961 86.1151 62.4361 86.971 62.5636C87.827 62.6912 88.6164 63.0992 89.2155 63.7237C89.8147 64.3481 90.1897 65.1537 90.2818 66.0142C90.3739 66.8746 90.1779 67.7414 89.7245 68.4785C89.2712 69.2156 88.586 69.7814 87.7765 70.0873C86.9669 70.3932 86.0788 70.4218 85.2512 70.1687C85.0875 69.7999 84.8092 69.4938 84.4577 69.2957C83.9088 68.9934 83.0557 68.4505 82.6122 67.4183Z" fill="url(#paint28_radial_34_469)"/>
<path d="M82.6122 67.4183C82.3935 66.581 82.4588 65.6948 82.7978 64.8986C83.1369 64.1024 83.7306 63.4412 84.4858 63.0186C85.241 62.5961 86.1151 62.4361 86.971 62.5636C87.827 62.6912 88.6164 63.0992 89.2155 63.7237C89.8147 64.3481 90.1897 65.1537 90.2818 66.0142C90.3739 66.8746 90.1779 67.7414 89.7245 68.4785C89.2712 69.2156 88.586 69.7814 87.7765 70.0873C86.9669 70.3932 86.0788 70.4218 85.2512 70.1687C85.0875 69.7999 84.8092 69.4938 84.4577 69.2957C83.9088 68.9934 83.0557 68.4505 82.6122 67.4183Z" fill="url(#paint29_radial_34_469)"/>
</g>
<g filter="url(#filter4_di_34_469)">
<path d="M46.2263 81.2042C48.937 83.915 53.332 83.915 56.0427 81.2042C58.7535 78.4935 58.7535 74.0985 56.0427 71.3878C53.332 68.6771 48.937 68.6771 46.2263 71.3878C43.5156 74.0985 43.5156 78.4935 46.2263 81.2042Z" fill="url(#paint30_radial_34_469)"/>
</g>
<g filter="url(#filter5_f_34_469)">
<path d="M77.2725 50.8421C77.6564 51.1464 78.3544 52.1984 78.08 54.0121C77.8075 55.8279 75.8148 67.1995 74.8503 72.6585C74.6136 73.7663 74.8383 76.115 77.6464 76.636C80.4565 77.1591 89.6902 78.6367 93.0571 79.3109" stroke="url(#paint31_linear_34_469)" stroke-width="0.703125"/>
<path d="M77.2725 50.8421C77.6564 51.1464 78.3544 52.1984 78.08 54.0121C77.8075 55.8279 75.8148 67.1995 74.8503 72.6585C74.6136 73.7663 74.8383 76.115 77.6464 76.636C80.4565 77.1591 89.6902 78.6367 93.0571 79.3109" stroke="url(#paint32_radial_34_469)" stroke-width="0.703125"/>
</g>
<path d="M76.666 50.5976C78.6441 52.5757 81.8513 52.5757 83.8294 50.5976C85.8075 48.6194 85.8075 45.4123 83.8294 43.4341C81.8513 41.456 78.6441 41.456 76.666 43.4341C74.6878 45.4123 74.6878 48.6194 76.666 50.5976Z" fill="url(#paint33_radial_34_469)"/>
<path d="M76.666 50.5976C78.6441 52.5757 81.8513 52.5757 83.8294 50.5976C85.8075 48.6194 85.8075 45.4123 83.8294 43.4341C81.8513 41.456 78.6441 41.456 76.666 43.4341C74.6878 45.4123 74.6878 48.6194 76.666 50.5976Z" fill="url(#paint34_radial_34_469)"/>
<path d="M76.666 50.5976C78.6441 52.5757 81.8513 52.5757 83.8294 50.5976C85.8075 48.6194 85.8075 45.4123 83.8294 43.4341C81.8513 41.456 78.6441 41.456 76.666 43.4341C74.6878 45.4123 74.6878 48.6194 76.666 50.5976Z" fill="url(#paint35_radial_34_469)"/>
<path d="M76.666 50.5976C78.6441 52.5757 81.8513 52.5757 83.8294 50.5976C85.8075 48.6194 85.8075 45.4123 83.8294 43.4341C81.8513 41.456 78.6441 41.456 76.666 43.4341C74.6878 45.4123 74.6878 48.6194 76.666 50.5976Z" fill="url(#paint36_radial_34_469)"/>
<path d="M99.431 83.2228C98.6976 83.9562 97.7029 84.3682 96.6657 84.3682C95.6285 84.3682 94.6337 83.9562 93.9003 83.2228C93.1669 82.4893 92.7549 81.4946 92.7549 80.4574C92.7549 79.4202 93.1669 78.4255 93.9003 77.6921C94.6335 76.9589 95.6278 76.5471 96.6647 76.5471C97.7015 76.5471 98.6959 76.9589 99.429 77.6921C100.162 78.4252 100.574 79.4196 100.574 80.4564C100.574 81.4933 100.162 82.4876 99.429 83.2208" fill="url(#paint37_radial_34_469)"/>
<path d="M99.431 83.2228C98.6976 83.9562 97.7029 84.3682 96.6657 84.3682C95.6285 84.3682 94.6337 83.9562 93.9003 83.2228C93.1669 82.4893 92.7549 81.4946 92.7549 80.4574C92.7549 79.4202 93.1669 78.4255 93.9003 77.6921C94.6335 76.9589 95.6278 76.5471 96.6647 76.5471C97.7015 76.5471 98.6959 76.9589 99.429 77.6921C100.162 78.4252 100.574 79.4196 100.574 80.4564C100.574 81.4933 100.162 82.4876 99.429 83.2208" fill="url(#paint38_radial_34_469)"/>
<path d="M99.431 83.2228C98.6976 83.9562 97.7029 84.3682 96.6657 84.3682C95.6285 84.3682 94.6337 83.9562 93.9003 83.2228C93.1669 82.4893 92.7549 81.4946 92.7549 80.4574C92.7549 79.4202 93.1669 78.4255 93.9003 77.6921C94.6335 76.9589 95.6278 76.5471 96.6647 76.5471C97.7015 76.5471 98.6959 76.9589 99.429 77.6921C100.162 78.4252 100.574 79.4196 100.574 80.4564C100.574 81.4933 100.162 82.4876 99.429 83.2208" fill="url(#paint39_radial_34_469)"/>
<path d="M99.431 83.2228C98.6976 83.9562 97.7029 84.3682 96.6657 84.3682C95.6285 84.3682 94.6337 83.9562 93.9003 83.2228C93.1669 82.4893 92.7549 81.4946 92.7549 80.4574C92.7549 79.4202 93.1669 78.4255 93.9003 77.6921C94.6335 76.9589 95.6278 76.5471 96.6647 76.5471C97.7015 76.5471 98.6959 76.9589 99.429 77.6921C100.162 78.4252 100.574 79.4196 100.574 80.4564C100.574 81.4933 100.162 82.4876 99.429 83.2208" fill="url(#paint40_radial_34_469)"/>
</g>
<defs>
<filter id="filter0_ii_34_469" x="19.0973" y="29.9153" width="79.673" height="76.3889" filterUnits="userSpaceOnUse" color-interpolation-filters="sRGB">
<feFlood flood-opacity="0" result="BackgroundImageFix"/>
<feBlend mode="normal" in="SourceGraphic" in2="BackgroundImageFix" result="shape"/>
<feColorMatrix in="SourceAlpha" type="matrix" values="0 0 0 0 0 0 0 0 0 0 0 0 0 0 0 0 0 0 127 0" result="hardAlpha"/>
<feOffset dx="1.875" dy="-0.46875"/>
<feGaussianBlur stdDeviation="1.17188"/>
<feComposite in2="hardAlpha" operator="arithmetic" k2="-1" k3="1"/>
<feColorMatrix type="matrix" values="0 0 0 0 0.803922 0 0 0 0 0.580392 0 0 0 0 0.262745 0 0 0 1 0"/>
<feBlend mode="normal" in2="shape" result="effect1_innerShadow_34_469"/>
<feColorMatrix in="SourceAlpha" type="matrix" values="0 0 0 0 0 0 0 0 0 0 0 0 0 0 0 0 0 0 127 0" result="hardAlpha"/>
<feOffset dx="-1.875" dy="-0.46875"/>
<feGaussianBlur stdDeviation="1.17188"/>
<feComposite in2="hardAlpha" operator="arithmetic" k2="-1" k3="1"/>
<feColorMatrix type="matrix" values="0 0 0 0 0.894118 0 0 0 0 0.686275 0 0 0 0 0.301961 0 0 0 1 0"/>
<feBlend mode="normal" in2="effect1_innerShadow_34_469" result="effect2_innerShadow_34_469"/>
</filter>
<filter id="filter1_di_34_469" x="55.0182" y="82.9774" width="15.4526" height="14.7" filterUnits="userSpaceOnUse" color-interpolation-filters="sRGB">
<feFlood flood-opacity="0" result="BackgroundImageFix"/>
<feColorMatrix in="SourceAlpha" type="matrix" values="0 0 0 0 0 0 0 0 0 0 0 0 0 0 0 0 0 0 127 0" result="hardAlpha"/>
<feOffset dx="-1.17188" dy="1.17188"/>
<feGaussianBlur stdDeviation="1.75781"/>
<feComposite in2="hardAlpha" operator="out"/>
<feColorMatrix type="matrix" values="0 0 0 0 1 0 0 0 0 0.54902 0 0 0 0 0.305882 0 0 0 1 0"/>
<feBlend mode="normal" in2="BackgroundImageFix" result="effect1_dropShadow_34_469"/>
<feBlend mode="normal" in="SourceGraphic" in2="effect1_dropShadow_34_469" result="shape"/>
<feColorMatrix in="SourceAlpha" type="matrix" values="0 0 0 0 0 0 0 0 0 0 0 0 0 0 0 0 0 0 127 0" result="hardAlpha"/>
<feOffset dx="0.703125" dy="-0.703125"/>
<feGaussianBlur stdDeviation="1.17188"/>
<feComposite in2="hardAlpha" operator="arithmetic" k2="-1" k3="1"/>
<feColorMatrix type="matrix" values="0 0 0 0 0.984314 0 0 0 0 0.219608 0 0 0 0 0.254902 0 0 0 1 0"/>
<feBlend mode="normal" in2="shape" result="effect2_innerShadow_34_469"/>
</filter>
<filter id="filter2_di_34_469" x="29.7539" y="56.9604" width="14.6992" height="15.4528" filterUnits="userSpaceOnUse" color-interpolation-filters="sRGB">
<feFlood flood-opacity="0" result="BackgroundImageFix"/>
<feColorMatrix in="SourceAlpha" type="matrix" values="0 0 0 0 0 0 0 0 0 0 0 0 0 0 0 0 0 0 127 0" result="hardAlpha"/>
<feOffset dx="-1.17188" dy="1.17188"/>
<feGaussianBlur stdDeviation="1.75781"/>
<feComposite in2="hardAlpha" operator="out"/>
<feColorMatrix type="matrix" values="0 0 0 0 0.905882 0 0 0 0 0.439216 0 0 0 0 0.278431 0 0 0 1 0"/>
<feBlend mode="normal" in2="BackgroundImageFix" result="effect1_dropShadow_34_469"/>
<feBlend mode="normal" in="SourceGraphic" in2="effect1_dropShadow_34_469" result="shape"/>
<feColorMatrix in="SourceAlpha" type="matrix" values="0 0 0 0 0 0 0 0 0 0 0 0 0 0 0 0 0 0 127 0" result="hardAlpha"/>
<feOffset dx="1.40625" dy="1.40625"/>
<feGaussianBlur stdDeviation="1.40625"/>
<feComposite in2="hardAlpha" operator="arithmetic" k2="-1" k3="1"/>
<feColorMatrix type="matrix" values="0 0 0 0 0.796078 0 0 0 0 0.141176 0 0 0 0 0.223529 0 0 0 1 0"/>
<feBlend mode="normal" in2="shape" result="effect2_innerShadow_34_469"/>
</filter>
<filter id="filter3_i_34_469" x="82.4852" y="62.5209" width="7.81885" height="7.81885" filterUnits="userSpaceOnUse" color-interpolation-filters="sRGB">
<feFlood flood-opacity="0" result="BackgroundImageFix"/>
<feBlend mode="normal" in="SourceGraphic" in2="BackgroundImageFix" result="shape"/>
<feColorMatrix in="SourceAlpha" type="matrix" values="0 0 0 0 0 0 0 0 0 0 0 0 0 0 0 0 0 0 127 0" result="hardAlpha"/>
<feOffset/>
<feGaussianBlur stdDeviation="0.585938"/>
<feComposite in2="hardAlpha" operator="arithmetic" k2="-1" k3="1"/>
<feColorMatrix type="matrix" values="0 0 0 0 0.756863 0 0 0 0 0.619608 0 0 0 0 0.321569 0 0 0 1 0"/>
<feBlend mode="normal" in2="shape" result="effect1_innerShadow_34_469"/>
</filter>
<filter id="filter4_di_34_469" x="35.9901" y="65.8391" width="25.6013" height="25.6013" filterUnits="userSpaceOnUse" color-interpolation-filters="sRGB">
<feFlood flood-opacity="0" result="BackgroundImageFix"/>
<feColorMatrix in="SourceAlpha" type="matrix" values="0 0 0 0 0 0 0 0 0 0 0 0 0 0 0 0 0 0 127 0" result="hardAlpha"/>
<feOffset dx="-2.34375" dy="2.34375"/>
<feGaussianBlur stdDeviation="2.92969"/>
<feComposite in2="hardAlpha" operator="out"/>
<feColorMatrix type="matrix" values="0 0 0 0 0.937255 0 0 0 0 0.443137 0 0 0 0 0.376471 0 0 0 1 0"/>
<feBlend mode="normal" in2="BackgroundImageFix" result="effect1_dropShadow_34_469"/>
<feBlend mode="normal" in="SourceGraphic" in2="effect1_dropShadow_34_469" result="shape"/>
<feColorMatrix in="SourceAlpha" type="matrix" values="0 0 0 0 0 0 0 0 0 0 0 0 0 0 0 0 0 0 127 0" result="hardAlpha"/>
<feOffset dx="3.51562" dy="-3.51562"/>
<feGaussianBlur stdDeviation="3.51562"/>
<feComposite in2="hardAlpha" operator="arithmetic" k2="-1" k3="1"/>
<feColorMatrix type="matrix" values="0 0 0 0 0.313726 0 0 0 0 0.384314 0 0 0 0 1 0 0 0 1 0"/>
<feBlend mode="normal" in2="shape" result="effect2_innerShadow_34_469"/>
</filter>
<filter id="filter5_f_34_469" x="73.725" y="49.8635" width="20.1044" height="30.4952" filterUnits="userSpaceOnUse" color-interpolation-filters="sRGB">
<feFlood flood-opacity="0" result="BackgroundImageFix"/>
<feBlend mode="normal" in="SourceGraphic" in2="BackgroundImageFix" result="shape"/>
<feGaussianBlur stdDeviation="0.351562" result="effect1_foregroundBlur_34_469"/>
</filter>
<radialGradient id="paint0_radial_34_469" cx="0" cy="0" r="1" gradientUnits="userSpaceOnUse" gradientTransform="translate(28.1039 56.9291) rotate(-58.54) scale(4.92699 6.06572)">
<stop stop-color="#395DE0"/>
<stop offset="1" stop-color="#2C68A3"/>
</radialGradient>
<radialGradient id="paint1_radial_34_469" cx="0" cy="0" r="1" gradientUnits="userSpaceOnUse" gradientTransform="translate(76.788 96.6044) rotate(153.743) scale(8.41112)">
<stop offset="0.249" stop-color="#3DB3F3"/>
<stop offset="1" stop-color="#5B73F4"/>
</radialGradient>
<radialGradient id="paint2_radial_34_469" cx="0" cy="0" r="1" gradientUnits="userSpaceOnUse" gradientTransform="translate(76.4432 98.9318) rotate(-153.838) scale(3.94678 2.50233)">
<stop offset="0.258" stop-color="#5FBEFF"/>
<stop offset="1" stop-color="#5FBEFF" stop-opacity="0"/>
</radialGradient>
<radialGradient id="paint3_radial_34_469" cx="0" cy="0" r="1" gradientUnits="userSpaceOnUse" gradientTransform="translate(53.8869 44.1819) rotate(60.9454) scale(8.95795 22.3587)">
<stop stop-color="#FBC96E"/>
<stop offset="1" stop-color="#FAC567"/>
</radialGradient>
<radialGradient id="paint4_radial_34_469" cx="0" cy="0" r="1" gradientUnits="userSpaceOnUse" gradientTransform="translate(56.2495 49.277) rotate(-111.753) scale(6.79167 20.4263)">
<stop offset="0.765" stop-color="#D89F3A" stop-opacity="0"/>
<stop offset="0.911" stop-color="#DAA139"/>
</radialGradient>
<radialGradient id="paint5_radial_34_469" cx="0" cy="0" r="1" gradientUnits="userSpaceOnUse" gradientTransform="translate(80.3029 78.2996) rotate(-80.455) scale(7.12131 7.30359)">
<stop offset="0.254" stop-color="#BF812A"/>
<stop offset="1" stop-color="#CE9333"/>
</radialGradient>
<radialGradient id="paint6_radial_34_469" cx="0" cy="0" r="1" gradientUnits="userSpaceOnUse" gradientTransform="translate(78.8735 71.9605) rotate(21.9091) scale(6.16269 16.0548)">
<stop offset="0.734" stop-color="#E9BB61" stop-opacity="0"/>
<stop offset="0.929" stop-color="#E9BB61"/>
</radialGradient>
<radialGradient id="paint7_radial_34_469" cx="0" cy="0" r="1" gradientUnits="userSpaceOnUse" gradientTransform="translate(80.2117 75.7838) rotate(-97.922) scale(9.69441 16.3549)">
<stop offset="0.773" stop-color="#C18739" stop-opacity="0"/>
<stop offset="0.948" stop-color="#C18739"/>
</radialGradient>
<linearGradient id="paint8_linear_34_469" x1="68.8621" y1="87.079" x2="25.5354" y2="60.1395" gradientUnits="userSpaceOnUse">
<stop stop-color="#FFBC5D"/>
<stop offset="0.304" stop-color="#FCAD6A"/>
<stop offset="1" stop-color="#CB7547"/>
</linearGradient>
<radialGradient id="paint9_radial_34_469" cx="0" cy="0" r="1" gradientUnits="userSpaceOnUse" gradientTransform="translate(24.4098 87.4886) rotate(-24.4212) scale(30.9448 60.2286)">
<stop stop-color="#F67B4E"/>
<stop offset="1" stop-color="#F67B4E" stop-opacity="0"/>
</radialGradient>
<linearGradient id="paint10_linear_34_469" x1="25.8596" y1="58.7852" x2="32.3846" y2="63.0749" gradientUnits="userSpaceOnUse">
<stop stop-color="#C2794C"/>
<stop offset="1" stop-color="#E07648" stop-opacity="0"/>
</linearGradient>
<linearGradient id="paint11_linear_34_469" x1="64.8269" y1="104.713" x2="57.7411" y2="93.4031" gradientUnits="userSpaceOnUse">
<stop offset="0.129" stop-color="#FFBB5B"/>
<stop offset="1" stop-color="#FFBB5B" stop-opacity="0"/>
</linearGradient>
<linearGradient id="paint12_linear_34_469" x1="40.9004" y1="92.0985" x2="43.263" y2="89.7359" gradientUnits="userSpaceOnUse">
<stop offset="0.184" stop-color="#FF6F8C"/>
<stop offset="1" stop-color="#FF7A6A" stop-opacity="0"/>
</linearGradient>
<radialGradient id="paint13_radial_34_469" cx="0" cy="0" r="1" gradientUnits="userSpaceOnUse" gradientTransform="translate(94.7833 80.4763) rotate(158.385) scale(7.08596 5.8737)">
<stop offset="0.377" stop-color="#DD9049"/>
<stop offset="1" stop-color="#F8BF60" stop-opacity="0"/>
</radialGradient>
<radialGradient id="paint14_radial_34_469" cx="0" cy="0" r="1" gradientUnits="userSpaceOnUse" gradientTransform="translate(46.7413 32.9952) rotate(109.217) scale(5.75884 3.14993)">
<stop offset="0.196" stop-color="#D7783D"/>
<stop offset="1" stop-color="#D7783D" stop-opacity="0"/>
</radialGradient>
<radialGradient id="paint15_radial_34_469" cx="0" cy="0" r="1" gradientUnits="userSpaceOnUse" gradientTransform="translate(77.8929 49.3864) rotate(121.057) scale(3.28273 7.18879)">
<stop offset="0.382" stop-color="#D48C33"/>
<stop offset="1" stop-color="#FEB16A" stop-opacity="0"/>
</radialGradient>
<radialGradient id="paint16_radial_34_469" cx="0" cy="0" r="1" gradientUnits="userSpaceOnUse" gradientTransform="translate(61.5933 89.6743) rotate(-6.58195) scale(6.50628 4.19823)">
<stop stop-color="#FF196C"/>
<stop offset="1" stop-color="#FF1F4A"/>
</radialGradient>
<radialGradient id="paint17_radial_34_469" cx="0" cy="0" r="1" gradientUnits="userSpaceOnUse" gradientTransform="translate(67.1896 90.4181) rotate(-165.256) scale(4.88409 3.09365)">
<stop offset="0.223" stop-color="#FF5873"/>
<stop offset="1" stop-color="#FF5873" stop-opacity="0"/>
</radialGradient>
<radialGradient id="paint18_radial_34_469" cx="0" cy="0" r="1" gradientUnits="userSpaceOnUse" gradientTransform="translate(37.1712 65.4975) rotate(-59.281) scale(4.98814 4.77596)">
<stop stop-color="#F6196C"/>
<stop offset="1" stop-color="#E42047"/>
</radialGradient>
<radialGradient id="paint19_radial_34_469" cx="0" cy="0" r="1" gradientUnits="userSpaceOnUse" gradientTransform="translate(40.7751 64.815) rotate(-159.274) scale(2.45859 2.15352)">
<stop stop-color="#FE536F"/>
<stop offset="1" stop-color="#FE536F" stop-opacity="0"/>
</radialGradient>
<radialGradient id="paint20_radial_34_469" cx="0" cy="0" r="1" gradientUnits="userSpaceOnUse" gradientTransform="translate(51.0725 31.0855) rotate(-179.802) scale(8.3612 8.6987)">
<stop offset="0.172" stop-color="#E7C04E"/>
<stop offset="1" stop-color="#D9972A"/>
</radialGradient>
<radialGradient id="paint21_radial_34_469" cx="0" cy="0" r="1" gradientUnits="userSpaceOnUse" gradientTransform="translate(43.1987 33.2438) rotate(-26.331) scale(4.6676 5.05609)">
<stop offset="0.065" stop-color="#DF8089"/>
<stop offset="1" stop-color="#DF8089" stop-opacity="0"/>
</radialGradient>
<radialGradient id="paint22_radial_34_469" cx="0" cy="0" r="1" gradientUnits="userSpaceOnUse" gradientTransform="translate(51.1663 31.4341) rotate(-173.983) scale(3.95735 2.04505)">
<stop stop-color="#FFDE71"/>
<stop offset="1" stop-color="#FFDE71" stop-opacity="0"/>
</radialGradient>
<radialGradient id="paint23_radial_34_469" cx="0" cy="0" r="1" gradientUnits="userSpaceOnUse" gradientTransform="translate(47.7337 31.8796) rotate(-135) scale(5.27344 5.48078)">
<stop offset="0.488" stop-color="#E1AD3D" stop-opacity="0"/>
<stop offset="1" stop-color="#B9894B"/>
</radialGradient>
<radialGradient id="paint24_radial_34_469" cx="0" cy="0" r="1" gradientUnits="userSpaceOnUse" gradientTransform="translate(65.0121 41.1974) rotate(-178.698) scale(8.20567 8.52826)">
<stop offset="0.172" stop-color="#E7C04E"/>
<stop offset="1" stop-color="#D9972A"/>
</radialGradient>
<radialGradient id="paint25_radial_34_469" cx="0" cy="0" r="1" gradientUnits="userSpaceOnUse" gradientTransform="translate(65.1054 41.5388) rotate(-172.907) scale(3.89881 1.99726)">
<stop stop-color="#FFDE71"/>
<stop offset="1" stop-color="#FFDE71" stop-opacity="0"/>
</radialGradient>
<radialGradient id="paint26_radial_34_469" cx="0" cy="0" r="1" gradientUnits="userSpaceOnUse" gradientTransform="translate(57.9599 43.7762) rotate(-31.7987) scale(3.6562 4.87631)">
<stop stop-color="#E4A122"/>
<stop offset="1" stop-color="#E4A122" stop-opacity="0"/>
</radialGradient>
<radialGradient id="paint27_radial_34_469" cx="0" cy="0" r="1" gradientUnits="userSpaceOnUse" gradientTransform="translate(61.7504 41.9107) rotate(-135) scale(5.27344 5.27344)">
<stop offset="0.488" stop-color="#E1AD3D" stop-opacity="0"/>
<stop offset="1" stop-color="#B9894B"/>
</radialGradient>
<radialGradient id="paint28_radial_34_469" cx="0" cy="0" r="1" gradientUnits="userSpaceOnUse" gradientTransform="translate(89.4981 67.4876) rotate(-178.68) scale(6.74485 7.01004)">
<stop offset="0.172" stop-color="#F0C950"/>
<stop offset="1" stop-color="#C8861F"/>
</radialGradient>
<radialGradient id="paint29_radial_34_469" cx="0" cy="0" r="1" gradientUnits="userSpaceOnUse" gradientTransform="translate(90.4319 67.3626) rotate(-167.86) scale(3.76674 1.92959)">
<stop offset="0.184" stop-color="#FFDE71"/>
<stop offset="1" stop-color="#FFDE71" stop-opacity="0"/>
</radialGradient>
<radialGradient id="paint30_radial_34_469" cx="0" cy="0" r="1" gradientUnits="userSpaceOnUse" gradientTransform="translate(54.82 76.9314) rotate(-176.845) scale(7.90479)">
<stop stop-color="#5FBFFF"/>
<stop offset="1" stop-color="#3E94FF"/>
</radialGradient>
<linearGradient id="paint31_linear_34_469" x1="77.6762" y1="50.4424" x2="74.3829" y2="78.9688" gradientUnits="userSpaceOnUse">
<stop stop-color="#FFD678"/>
<stop offset="1" stop-color="#FFD678" stop-opacity="0"/>
</linearGradient>
<radialGradient id="paint32_radial_34_469" cx="0" cy="0" r="1" gradientUnits="userSpaceOnUse" gradientTransform="translate(75.9361 77.4156) rotate(10.3321) scale(18.2735 4.89438)">
<stop offset="0.289" stop-color="#FFD175"/>
<stop offset="1" stop-color="#FFD175" stop-opacity="0"/>
</radialGradient>
<radialGradient id="paint33_radial_34_469" cx="0" cy="0" r="1" gradientUnits="userSpaceOnUse" gradientTransform="translate(85.0898 47.9119) rotate(170.606) scale(9.66153 8.20286)">
<stop offset="0.376" stop-color="#F3D154"/>
<stop offset="1" stop-color="#CC9848"/>
</radialGradient>
<radialGradient id="paint34_radial_34_469" cx="0" cy="0" r="1" gradientUnits="userSpaceOnUse" gradientTransform="translate(75.9898 49.9214) rotate(-34.3129) scale(5.15409 6.12677)">
<stop stop-color="#E78F5E"/>
<stop offset="1" stop-color="#E78F5E" stop-opacity="0"/>
</radialGradient>
<radialGradient id="paint35_radial_34_469" cx="0" cy="0" r="1" gradientUnits="userSpaceOnUse" gradientTransform="translate(80.55 49.7126) rotate(-101.725) scale(10.0921 12.0707)">
<stop offset="0.557" stop-color="#E9C251" stop-opacity="0"/>
<stop offset="1" stop-color="#B49858"/>
</radialGradient>
<radialGradient id="paint36_radial_34_469" cx="0" cy="0" r="1" gradientUnits="userSpaceOnUse" gradientTransform="translate(85.9593 49.5256) rotate(-158.94) scale(5.57748 4.29212)">
<stop stop-color="#FFED77"/>
<stop offset="1" stop-color="#FFED77" stop-opacity="0"/>
</radialGradient>
<radialGradient id="paint37_radial_34_469" cx="0" cy="0" r="1" gradientUnits="userSpaceOnUse" gradientTransform="translate(100.79 80.8068) rotate(-179.802) scale(8.3612 8.6987)">
<stop offset="0.172" stop-color="#F8CB54"/>
<stop offset="1" stop-color="#EAA34B"/>
</radialGradient>
<radialGradient id="paint38_radial_34_469" cx="0" cy="0" r="1" gradientUnits="userSpaceOnUse" gradientTransform="translate(92.9199 82.9642) rotate(-26.3309) scale(4.66761 6.30918)">
<stop offset="0.16" stop-color="#F1907C"/>
<stop offset="1" stop-color="#F1907C" stop-opacity="0"/>
</radialGradient>
<radialGradient id="paint39_radial_34_469" cx="0" cy="0" r="1" gradientUnits="userSpaceOnUse" gradientTransform="translate(100.885 81.1565) rotate(-173.983) scale(3.95735 2.04505)">
<stop stop-color="#FFDE71"/>
<stop offset="1" stop-color="#FFDE71" stop-opacity="0"/>
</radialGradient>
<radialGradient id="paint40_radial_34_469" cx="0" cy="0" r="1" gradientUnits="userSpaceOnUse" gradientTransform="translate(97.4522 81.598) rotate(-135) scale(5.27344 5.48078)">
<stop offset="0.488" stop-color="#E0A444" stop-opacity="0"/>
<stop offset="1" stop-color="#C6924D"/>
</radialGradient>
<clipPath id="clip0_34_469">
<rect width="90" height="90" fill="white" transform="translate(63.6396) rotate(45)"/>
</clipPath>
</defs>
</svg>
