<svg width="12" height="12" viewBox="0 0 12 12" fill="none" xmlns="http://www.w3.org/2000/svg">
<path d="M11.47 0.529299C11.1301 0.189898 10.6694 -0.000732422 10.189 -0.000732422C9.70864 -0.000732422 9.24792 0.189898 8.908 0.529299L0 9.4373V11.9993H2.562L11.47 3.0913C11.8093 2.75131 11.9998 2.29061 11.9998 1.8103C11.9998 1.32998 11.8093 0.869287 11.47 0.529299V0.529299ZM2.15 10.9993H1V9.8493L7.655 3.1993L8.805 4.3493L2.15 10.9993ZM10.763 2.3843L9.5095 3.6378L8.362 2.4878L9.615 1.2363C9.7675 1.0838 9.97433 0.998126 10.19 0.998126C10.4057 0.998126 10.6125 1.0838 10.765 1.2363C10.9175 1.3888 11.0032 1.59563 11.0032 1.8113C11.0032 2.02697 10.9175 2.2338 10.765 2.3863L10.763 2.3843Z" fill="#FF6666"/>
</svg>
