<svg width="90" height="90" viewBox="0 0 90 90" fill="none" xmlns="http://www.w3.org/2000/svg">
<g id="fi-rs-add" clip-path="url(#clip0_475_4940)">
<path id="Vector" d="M45 0C36.0999 0 27.3996 2.6392 19.9994 7.58387C12.5991 12.5285 6.83138 19.5566 3.42544 27.7792C0.0194979 36.0019 -0.871652 45.0499 0.864683 53.7791C2.60102 62.5082 6.88685 70.5264 13.1802 76.8198C19.4736 83.1132 27.4918 87.399 36.221 89.1353C44.9501 90.8717 53.9981 89.9805 62.2208 86.5746C70.4435 83.1686 77.4715 77.4009 82.4162 70.0007C87.3608 62.6005 90 53.9002 90 45C89.9871 33.0692 85.2419 21.6308 76.8056 13.1944C68.3692 4.75811 56.9308 0.0129041 45 0V0ZM45 82.5C37.5832 82.5 30.333 80.3007 24.1661 76.1801C17.9993 72.0596 13.1928 66.2029 10.3545 59.3506C7.51625 52.4984 6.77363 44.9584 8.22057 37.6841C9.66752 30.4098 13.239 23.728 18.4835 18.4835C23.728 13.239 30.4098 9.6675 37.6841 8.22055C44.9584 6.77361 52.4984 7.51623 59.3507 10.3545C66.2029 13.1928 72.0596 17.9993 76.1801 24.1661C80.3007 30.333 82.5 37.5832 82.5 45C82.4891 54.9423 78.5347 64.4742 71.5045 71.5044C64.4742 78.5347 54.9423 82.4891 45 82.5ZM48.75 41.25H63.75V48.75H48.75V63.75H41.25V48.75H26.25V41.25H41.25V26.25H48.75V41.25Z" fill="#FF6666"/>
</g>
<defs>
<clipPath id="clip0_475_4940">
<rect width="90" height="90" fill="white"/>
</clipPath>
</defs>
</svg>
