<svg width="40" height="40" viewBox="0 0 40 40" fill="none" xmlns="http://www.w3.org/2000/svg">
<g clip-path="url(#clip0_1_71)">
<path d="M11.6667 36.6667H8.33333C7.00725 36.6667 5.73548 36.1399 4.7978 35.2022C3.86012 34.2645 3.33333 32.9927 3.33333 31.6667V8.33333C3.33333 7.00725 3.86012 5.73548 4.7978 4.7978C5.73548 3.86012 7.00725 3.33333 8.33333 3.33333H11.6667C12.1087 3.33333 12.5326 3.15774 12.8452 2.84518C13.1577 2.53262 13.3333 2.10869 13.3333 1.66667C13.3333 1.22464 13.1577 0.800716 12.8452 0.488155C12.5326 0.175595 12.1087 0 11.6667 0L8.33333 0C6.12401 0.00264643 4.00593 0.88147 2.4437 2.4437C0.88147 4.00593 0.00264643 6.12401 0 8.33333L0 31.6667C0.00264643 33.876 0.88147 35.9941 2.4437 37.5563C4.00593 39.1185 6.12401 39.9974 8.33333 40H11.6667C12.1087 40 12.5326 39.8244 12.8452 39.5118C13.1577 39.1993 13.3333 38.7754 13.3333 38.3333C13.3333 37.8913 13.1577 37.4674 12.8452 37.1548C12.5326 36.8423 12.1087 36.6667 11.6667 36.6667Z" fill="white"/>
<path d="M38.3331 18.3337L12.0381 18.387C12.1843 18.1155 12.3671 17.8654 12.5814 17.6437L19.0464 11.1787C19.2056 11.0249 19.3326 10.841 19.4199 10.6377C19.5073 10.4343 19.5533 10.2157 19.5552 9.99435C19.5571 9.77305 19.5149 9.55359 19.4311 9.34876C19.3473 9.14393 19.2236 8.95784 19.0671 8.80136C18.9106 8.64487 18.7245 8.52111 18.5197 8.43731C18.3149 8.35351 18.0954 8.31134 17.8741 8.31326C17.6528 8.31519 17.4341 8.36117 17.2308 8.44851C17.0274 8.53586 16.8435 8.66283 16.6898 8.82202L10.2214 15.287C8.97163 16.5372 8.26953 18.2326 8.26953 20.0004C8.26953 21.7681 8.97163 23.4635 10.2214 24.7137L16.6864 31.1787C16.8402 31.3379 17.0241 31.4648 17.2274 31.5522C17.4308 31.6395 17.6495 31.6855 17.8708 31.6874C18.0921 31.6894 18.3115 31.6472 18.5164 31.5634C18.7212 31.4796 18.9073 31.3558 19.0638 31.1993C19.2203 31.0429 19.344 30.8568 19.4278 30.6519C19.5116 30.4471 19.5538 30.2276 19.5519 30.0063C19.5499 29.7851 19.504 29.5664 19.4166 29.363C19.3293 29.1597 19.2023 28.9758 19.0431 28.822L12.5781 22.357C12.3916 22.1649 12.2288 21.9512 12.0931 21.7203L38.3331 21.667C38.7751 21.667 39.1991 21.4914 39.5116 21.1789C39.8242 20.8663 39.9998 20.4424 39.9998 20.0004C39.9998 19.5583 39.8242 19.1344 39.5116 18.8218C39.1991 18.5093 38.7751 18.3337 38.3331 18.3337Z" fill="white"/>
</g>
<defs>
<clipPath id="clip0_1_71">
<rect width="40" height="40" fill="white"/>
</clipPath>
</defs>
</svg>
