<svg width="20" height="22" viewBox="0 0 20 22" fill="none" xmlns="http://www.w3.org/2000/svg">
<g id="01 align center">
<path id="Vector" d="M19.1668 3.66667H14.5835V1.83333C14.5835 1.3471 14.3903 0.880788 14.0465 0.536971C13.7027 0.193154 13.2364 0 12.7501 0L7.25013 0C6.7639 0 6.29759 0.193154 5.95377 0.536971C5.60995 0.880788 5.4168 1.3471 5.4168 1.83333V3.66667H0.833466V5.5H2.6668V19.25C2.6668 19.9793 2.95653 20.6788 3.47226 21.1945C3.98798 21.7103 4.68745 22 5.4168 22H14.5835C15.3128 22 16.0123 21.7103 16.528 21.1945C17.0437 20.6788 17.3335 19.9793 17.3335 19.25V5.5H19.1668V3.66667ZM7.25013 1.83333H12.7501V3.66667H7.25013V1.83333ZM15.5001 19.25C15.5001 19.4931 15.4036 19.7263 15.2316 19.8982C15.0597 20.0701 14.8266 20.1667 14.5835 20.1667H5.4168C5.17368 20.1667 4.94053 20.0701 4.76862 19.8982C4.59671 19.7263 4.50013 19.4931 4.50013 19.25V5.5H15.5001V19.25Z" fill="#FF6666"/>
<path id="Vector_2" d="M9.08333 9.16602H7.25V16.4993H9.08333V9.16602Z" fill="#FF6666"/>
<path id="Vector_3" d="M12.7503 9.16602H10.917V16.4993H12.7503V9.16602Z" fill="#FF6666"/>
</g>
</svg>
