<svg width="80" height="80" viewBox="0 0 80 80" fill="none" xmlns="http://www.w3.org/2000/svg">
<path d="M39.9867 39.9998H40.0134M53.3034 39.9998H53.3334M26.6667 39.9998H26.6967M73.3334 38.5565C73.3334 56.1665 58.4067 70.4432 40 70.4432C37.8289 70.4454 35.6789 70.2476 33.55 69.8498C32.02 69.5598 31.2567 69.4165 30.7234 69.4998C30.19 69.5798 29.43 69.9832 27.9167 70.7865C23.6045 73.0831 18.6427 73.8548 13.8367 72.9765C15.6725 70.707 16.9174 68.018 17.46 65.1498C17.7934 63.3832 16.9667 61.6665 15.7267 60.4098C10.1134 54.7032 6.66669 47.0165 6.66669 38.5565C6.66669 20.9465 21.5934 6.6665 40 6.6665C58.4067 6.6665 73.3334 20.9465 73.3334 38.5565Z" stroke="#FF6666" stroke-width="5" stroke-linecap="round" stroke-linejoin="round"/>
</svg>
