<svg width="40" height="40" viewBox="0 0 40 40" fill="none" xmlns="http://www.w3.org/2000/svg">
<circle cx="20" cy="20" r="18.5" stroke="white" stroke-width="3"/>
<g clip-path="url(#clip0_9_86)">
<path d="M29 32.0006H27V26.9576C26.9992 26.1736 26.6874 25.4219 26.133 24.8676C25.5787 24.3132 24.827 24.0014 24.043 24.0006H15.957C15.173 24.0014 14.4213 24.3132 13.867 24.8676C13.3126 25.4219 13.0008 26.1736 13 26.9576V32.0006H11V26.9576C11.0016 25.6434 11.5244 24.3835 12.4536 23.4542C13.3829 22.525 14.6428 22.0022 15.957 22.0006H24.043C25.3572 22.0022 26.6171 22.525 27.5464 23.4542C28.4756 24.3835 28.9984 25.6434 29 26.9576V32.0006Z" fill="white"/>
<path d="M19.9999 19.9999C18.8133 19.9999 17.6532 19.648 16.6665 18.9888C15.6798 18.3295 14.9108 17.3924 14.4567 16.296C14.0025 15.1997 13.8837 13.9933 14.1152 12.8294C14.3467 11.6655 14.9182 10.5964 15.7573 9.7573C16.5964 8.91819 17.6655 8.34674 18.8294 8.11523C19.9933 7.88372 21.1997 8.00254 22.296 8.45666C23.3924 8.91079 24.3295 9.67983 24.9888 10.6665C25.648 11.6532 25.9999 12.8133 25.9999 13.9999C25.9984 15.5908 25.3657 17.116 24.2408 18.2408C23.116 19.3657 21.5908 19.9984 19.9999 19.9999V19.9999ZM19.9999 9.99994C19.2088 9.99994 18.4355 10.2345 17.7777 10.6741C17.1199 11.1136 16.6072 11.7383 16.3044 12.4692C16.0017 13.2001 15.9225 14.0044 16.0768 14.7803C16.2311 15.5562 16.6121 16.269 17.1715 16.8284C17.7309 17.3878 18.4437 17.7687 19.2196 17.9231C19.9955 18.0774 20.7998 17.9982 21.5307 17.6955C22.2616 17.3927 22.8863 16.88 23.3258 16.2222C23.7653 15.5644 23.9999 14.7911 23.9999 13.9999C23.9999 12.9391 23.5785 11.9217 22.8284 11.1715C22.0782 10.4214 21.0608 9.99994 19.9999 9.99994Z" fill="white"/>
</g>
<defs>
<clipPath id="clip0_9_86">
<rect width="24" height="24" fill="white" transform="translate(8 8)"/>
</clipPath>
</defs>
</svg>
