<svg width="40" height="40" viewBox="0 0 40 40" fill="none" xmlns="http://www.w3.org/2000/svg">
<g clip-path="url(#clip0_1_74)">
<path d="M33.333 0H4.99971V5H1.66638V8.33333H4.99971V11.6667H1.66638V15H4.99971V18.3333H1.66638V21.6667H4.99971V25H1.66638V28.3333H4.99971V31.6667H1.66638V35H4.99971V40H33.333C34.6591 40 35.9309 39.4732 36.8686 38.5355C37.8063 37.5979 38.333 36.3261 38.333 35V5C38.333 3.67392 37.8063 2.40215 36.8686 1.46447C35.9309 0.526784 34.6591 0 33.333 0V0ZM34.9997 35C34.9997 35.442 34.8241 35.866 34.5116 36.1785C34.199 36.4911 33.7751 36.6667 33.333 36.6667H8.33305V3.33333H33.333C33.7751 3.33333 34.199 3.50893 34.5116 3.82149C34.8241 4.13405 34.9997 4.55797 34.9997 5V35ZM21.6664 20C22.6553 20 23.622 19.7068 24.4442 19.1573C25.2665 18.6079 25.9073 17.827 26.2858 16.9134C26.6642 15.9998 26.7632 14.9945 26.5703 14.0245C26.3774 13.0546 25.9012 12.1637 25.2019 11.4645C24.5027 10.7652 23.6117 10.289 22.6418 10.0961C21.6719 9.90315 20.6666 10.0022 19.753 10.3806C18.8393 10.759 18.0584 11.3999 17.509 12.2221C16.9596 13.0444 16.6664 14.0111 16.6664 15C16.6664 16.3261 17.1932 17.5979 18.1308 18.5355C19.0685 19.4732 20.3403 20 21.6664 20ZM29.9997 26.6667V30H26.6664V26.6667C26.6664 26.2246 26.4908 25.8007 26.1782 25.4882C25.8657 25.1756 25.4417 25 24.9997 25H18.333C17.891 25 17.4671 25.1756 17.1545 25.4882C16.842 25.8007 16.6664 26.2246 16.6664 26.6667V30H13.333V26.6667C13.333 25.3406 13.8598 24.0688 14.7975 23.1311C15.7352 22.1934 17.007 21.6667 18.333 21.6667H24.9997C26.3258 21.6667 27.5976 22.1934 28.5352 23.1311C29.4729 24.0688 29.9997 25.3406 29.9997 26.6667Z" fill="white"/>
</g>
<defs>
<clipPath id="clip0_1_74">
<rect width="40" height="40" fill="white"/>
</clipPath>
</defs>
</svg>
