<svg width="24" height="24" viewBox="0 0 24 24" fill="none" xmlns="http://www.w3.org/2000/svg">
<g clip-path="url(#clip0_428_4382)">
<path d="M23.8209 11.181C22.9429 9.261 19.4999 3 11.9999 3C4.49987 3 1.05687 9.261 0.178871 11.181C0.0610095 11.4383 0 11.718 0 12.001C0 12.284 0.0610095 12.5637 0.178871 12.821C1.05687 14.739 4.49987 21 11.9999 21C19.4999 21 22.9429 14.739 23.8209 12.819C23.9385 12.562 23.9994 12.2827 23.9994 12C23.9994 11.7173 23.9385 11.438 23.8209 11.181ZM11.9999 19C5.69287 19 2.74987 13.634 1.99987 12.011C2.74987 10.366 5.69287 5 11.9999 5C18.2919 5 21.2359 10.343 21.9999 12C21.2359 13.657 18.2919 19 11.9999 19Z" fill="#FF6666"/>
<path d="M11.9999 7.00024C11.011 7.00024 10.0443 7.29349 9.22203 7.8429C8.39978 8.3923 7.75892 9.1732 7.38048 10.0868C7.00204 11.0005 6.90303 12.0058 7.09595 12.9757C7.28888 13.9456 7.76508 14.8365 8.46435 15.5358C9.16361 16.235 10.0545 16.7112 11.0244 16.9042C11.9943 17.0971 12.9997 16.9981 13.9133 16.6196C14.8269 16.2412 15.6078 15.6003 16.1572 14.7781C16.7066 13.9559 16.9999 12.9892 16.9999 12.0002C16.9983 10.6746 16.471 9.4038 15.5337 8.46646C14.5963 7.52913 13.3255 7.00183 11.9999 7.00024ZM11.9999 15.0002C11.4065 15.0002 10.8265 14.8243 10.3332 14.4947C9.83982 14.165 9.4553 13.6965 9.22824 13.1483C9.00118 12.6001 8.94177 11.9969 9.05752 11.415C9.17328 10.833 9.459 10.2985 9.87856 9.87892C10.2981 9.45937 10.8327 9.17364 11.4146 9.05789C11.9966 8.94213 12.5998 9.00154 13.1479 9.22861C13.6961 9.45567 14.1646 9.84019 14.4943 10.3335C14.8239 10.8269 14.9999 11.4069 14.9999 12.0002C14.9999 12.7959 14.6838 13.559 14.1212 14.1216C13.5586 14.6842 12.7955 15.0002 11.9999 15.0002Z" fill="#FF6666"/>
</g>
<defs>
<clipPath id="clip0_428_4382">
<rect width="24" height="24" fill="white"/>
</clipPath>
</defs>
</svg>
