<svg width="40" height="40" viewBox="0 0 40 40" fill="none" xmlns="http://www.w3.org/2000/svg">
<g clip-path="url(#clip0_424_5139)">
<path d="M21.6668 24.9993H18.3335V8.33267H21.6668V24.9993ZM21.3218 39.5127C24.9218 38.066 36.6668 32.3793 36.6668 19.9843V9.111C36.6671 8.0617 36.3364 7.03905 35.7218 6.18861C35.1071 5.33817 34.2399 4.70329 33.2435 4.37433L20.0002 -0.017334L6.75683 4.37433C5.76043 4.70329 4.89319 5.33817 4.27855 6.18861C3.66391 7.03905 3.3332 8.0617 3.3335 9.111V19.9843C3.3335 30.9227 15.0085 37.611 18.5885 39.4027L19.9218 40.0693L21.3218 39.5127ZM32.1935 7.53767C32.5242 7.64779 32.812 7.85881 33.0165 8.14103C33.221 8.42326 33.3318 8.76248 33.3335 9.111V19.9843C33.3335 30.2893 23.1885 35.171 20.0785 36.421C16.9318 34.846 6.66683 29.011 6.66683 19.9843V9.111C6.66849 8.76248 6.77936 8.42326 6.98385 8.14103C7.18835 7.85881 7.47617 7.64779 7.80683 7.53767L20.0002 3.49933L32.1935 7.53767ZM21.6668 28.3327H18.3335V31.666H21.6668V28.3327Z" fill="#FF0000"/>
</g>
<defs>
<clipPath id="clip0_424_5139">
<rect width="40" height="40" fill="white"/>
</clipPath>
</defs>
</svg>
