<svg width="30" height="29" viewBox="0 0 30 29" fill="none" xmlns="http://www.w3.org/2000/svg">
<path d="M21.8752 0.146484C20.4676 0.168378 19.0908 0.561301 17.8836 1.28557C16.6765 2.00985 15.6819 3.03982 15.0002 4.27148C14.3185 3.03982 13.3239 2.00985 12.1167 1.28557C10.9096 0.561301 9.53275 0.168378 8.12519 0.146484C5.88137 0.243973 3.76732 1.22555 2.24492 2.87677C0.722516 4.528 -0.0844962 6.71464 0.000192004 8.95898C0.000192004 17.4277 13.6952 27.209 14.2777 27.624L15.0002 28.1352L15.7227 27.624C16.3052 27.2115 30.0002 17.4277 30.0002 8.95898C30.0849 6.71464 29.2779 4.528 27.7555 2.87677C26.2331 1.22555 24.119 0.243973 21.8752 0.146484V0.146484ZM15.0002 25.0577C10.9339 22.0202 2.50019 14.5577 2.50019 8.95898C2.41474 7.37738 2.95815 5.82615 4.0119 4.64361C5.06564 3.46107 6.54423 2.74317 8.12519 2.64648C9.70615 2.74317 11.1847 3.46107 12.2385 4.64361C13.2922 5.82615 13.8356 7.37738 13.7502 8.95898H16.2502C16.1647 7.37738 16.7081 5.82615 17.7619 4.64361C18.8156 3.46107 20.2942 2.74317 21.8752 2.64648C23.4561 2.74317 24.9347 3.46107 25.9885 4.64361C27.0422 5.82615 27.5856 7.37738 27.5002 8.95898C27.5002 14.5602 19.0664 22.0202 15.0002 25.0577Z" fill="white"/>
</svg>
