<svg width="30" height="30" viewBox="0 0 30 30" fill="none" xmlns="http://www.w3.org/2000/svg">
<rect x="1" y="1" width="28" height="28" rx="4" stroke="white" stroke-width="2"/>
<g clip-path="url(#clip0_505_5230)">
<path d="M23.205 6.79407C22.6951 6.28497 22.004 5.99902 21.2835 5.99902C20.563 5.99902 19.8719 6.28497 19.362 6.79407L6 20.1561V23.9991H9.843L23.205 10.6371C23.7139 10.1271 23.9997 9.43604 23.9997 8.71557C23.9997 7.9951 23.7139 7.30405 23.205 6.79407ZM9.225 22.4991H7.5V20.7741L17.4825 10.7991L19.2075 12.5241L9.225 22.4991ZM22.1445 9.57657L20.2642 11.4568L18.543 9.73182L20.4225 7.85457C20.6512 7.62582 20.9615 7.49731 21.285 7.49731C21.6085 7.49731 21.9188 7.62582 22.1475 7.85457C22.3762 8.08332 22.5048 8.39357 22.5048 8.71707C22.5048 9.04057 22.3762 9.35082 22.1475 9.57957L22.1445 9.57657Z" fill="white"/>
</g>
<defs>
<clipPath id="clip0_505_5230">
<rect width="18" height="18" fill="white" transform="translate(6 6)"/>
</clipPath>
</defs>
</svg>
