<svg width="61" height="58" viewBox="0 0 61 58" fill="none" xmlns="http://www.w3.org/2000/svg">
<path d="M41.1818 35.9814L47.8722 56.6642L30.4536 43.8621L30.1575 43.6445L29.8614 43.8621L12.4427 56.6642L19.1332 35.9814L19.2446 35.6372L18.9525 35.4238L1.53181 22.695H23.035H23.3997L23.5111 22.3478L30.1575 1.63635L36.8039 22.3478L36.9153 22.695H37.28H58.7809L41.3625 35.4238L41.0704 35.6372L41.1818 35.9814ZM39.7784 44.6291L36.3892 34.1129L45.2952 27.5986L46.5305 26.695H45H33.9971L30.6336 16.2147L30.1575 14.7313L29.6814 16.2147L26.3179 26.695H15.3125H13.7807L15.0175 27.5987L23.9333 34.113L20.5441 44.6291L20.0692 46.1028L21.3163 45.1852L30.1576 38.6806L39.0064 45.1854L40.253 46.1018L39.7784 44.6291Z" fill="white" stroke="#999999"/>
</svg>
