<svg width="24" height="24" viewBox="0 0 24 24" fill="none" xmlns="http://www.w3.org/2000/svg">
<g clip-path="url(#clip0_267_851)">
<path d="M3.09517 24L20.9002 24C21.7283 23.9934 22.5199 23.6584 23.1012 23.0685C23.6824 22.4786 24.0058 21.6821 24.0002 20.854V16H22.0002V20.854C22.0032 21.0015 21.9772 21.1481 21.9236 21.2855C21.8699 21.423 21.7897 21.5485 21.6876 21.6549C21.5854 21.7613 21.4633 21.8466 21.3282 21.9058C21.1931 21.965 21.0477 21.997 20.9002 22L3.09017 22C2.79407 21.9914 2.51337 21.8661 2.30922 21.6514C2.10506 21.4368 1.99398 21.1502 2.00017 20.854L2.00017 3.146C1.994 2.84899 2.10576 2.56163 2.31099 2.34685C2.51622 2.13206 2.79819 2.00734 3.09517 2L20.9002 2C21.0477 2.00299 21.1931 2.03501 21.3282 2.09422C21.4633 2.15344 21.5854 2.23869 21.6876 2.34512C21.7897 2.45154 21.8699 2.57704 21.9236 2.71446C21.9772 2.85188 22.0032 2.99852 22.0002 3.146L22.0002 8H24.0002V3.146C24.0058 2.31788 23.6824 1.5214 23.1012 0.931524C22.5199 0.341646 21.7283 0.00660623 20.9002 0L3.09017 0C2.2638 0.00923692 1.47474 0.345435 0.895639 0.935028C0.316542 1.52462 -0.00543161 2.3196 0.000173569 3.146L0.000173569 20.854C-0.00542369 21.6813 0.317236 22.477 0.897411 23.0667C1.47759 23.6565 2.26793 23.9921 3.09517 24V24Z" fill="#FF6666"/>
<path d="M21 11.001L6.914 11.001L11.214 6.70099L9.8 5.28299L4.851 10.233C4.61878 10.4651 4.43458 10.7408 4.3089 11.0441C4.18322 11.3475 4.11853 11.6726 4.11853 12.001C4.11853 12.3294 4.18322 12.6545 4.3089 12.9579C4.43458 13.2612 4.61878 13.5368 4.851 13.769L9.8 18.719L11.217 17.301L6.917 13.001L21 13.001V11.001Z" fill="#FF6666"/>
</g>
<defs>
<clipPath id="clip0_267_851">
<rect width="24" height="24" fill="white" transform="matrix(-1 0 0 -1 24 24)"/>
</clipPath>
</defs>
</svg>
