<svg width="30" height="30" viewBox="0 0 30 30" fill="none" xmlns="http://www.w3.org/2000/svg">
<g clip-path="url(#clip0_223_1333)">
<path d="M26.25 2.5H22.5V0H20V2.5H10V0H7.5V2.5H3.75C2.75544 2.5 1.80161 2.89509 1.09835 3.59835C0.395088 4.30161 0 5.25544 0 6.25L0 30H30V6.25C30 5.25544 29.6049 4.30161 28.9017 3.59835C28.1984 2.89509 27.2446 2.5 26.25 2.5ZM2.5 6.25C2.5 5.91848 2.6317 5.60054 2.86612 5.36612C3.10054 5.1317 3.41848 5 3.75 5H26.25C26.5815 5 26.8995 5.1317 27.1339 5.36612C27.3683 5.60054 27.5 5.91848 27.5 6.25V10H2.5V6.25ZM2.5 27.5V12.5H27.5V27.5H2.5Z" fill="#FF6666"/>
<path d="M21.25 16.25H18.75V18.75H21.25V16.25Z" fill="#FF6666"/>
<path d="M16.2503 16.25H13.7502V18.75H16.2503V16.25Z" fill="#FF6666"/>
<path d="M11.2498 16.25H8.74976V18.75H11.2498V16.25Z" fill="#FF6666"/>
<path d="M21.25 21.2502H18.75V23.7503H21.25V21.2502Z" fill="#FF6666"/>
<path d="M16.2503 21.2502H13.7502V23.7503H16.2503V21.2502Z" fill="#FF6666"/>
<path d="M11.2498 21.2502H8.74976V23.7503H11.2498V21.2502Z" fill="#FF6666"/>
</g>
<defs>
<clipPath id="clip0_223_1333">
<rect width="30" height="30" fill="white"/>
</clipPath>
</defs>
</svg>
