<svg width="24" height="24" viewBox="0 0 24 24" fill="none" xmlns="http://www.w3.org/2000/svg">
<g clip-path="url(#clip0_220_1123)">
<path d="M20.9048 0H3.09983C2.27172 0.00660623 1.48009 0.341647 0.898834 0.931525C0.31758 1.5214 -0.00576425 2.31788 -0.000172812 3.146V8H1.99983V3.146C1.99678 2.99852 2.02281 2.85188 2.07644 2.71446C2.13008 2.57704 2.21026 2.45154 2.31241 2.34511C2.41456 2.23869 2.53668 2.15344 2.67179 2.09422C2.80689 2.03501 2.95234 2.00299 3.09983 2H20.9098C21.2059 2.00864 21.4866 2.13393 21.6908 2.34857C21.8949 2.56322 22.006 2.84983 21.9998 3.146V20.854C22.006 21.151 21.8942 21.4384 21.689 21.6532C21.4838 21.8679 21.2018 21.9927 20.9048 22H3.09983C2.95234 21.997 2.80689 21.965 2.67179 21.9058C2.53668 21.8466 2.41456 21.7613 2.31241 21.6549C2.21026 21.5485 2.13008 21.423 2.07644 21.2855C2.02281 21.1481 1.99678 21.0015 1.99983 20.854V16H-0.000172812V20.854C-0.00576425 21.6821 0.31758 22.4786 0.898834 23.0685C1.48009 23.6584 2.27172 23.9934 3.09983 24H20.9098C21.7362 23.9908 22.5253 23.6546 23.1044 23.065C23.6835 22.4754 24.0054 21.6804 23.9998 20.854V3.146C24.0054 2.31874 23.6828 1.52301 23.1026 0.933278C22.5224 0.343543 21.7321 0.00792295 20.9048 0V0Z" fill="white"/>
<path d="M3 12.999H17.086L12.786 17.299L14.2 18.717L19.149 13.767C19.3812 13.5349 19.5654 13.2592 19.6911 12.9559C19.8168 12.6525 19.8815 12.3274 19.8815 11.999C19.8815 11.6706 19.8168 11.3455 19.6911 11.0421C19.5654 10.7388 19.3812 10.4632 19.149 10.231L14.2 5.28101L12.783 6.69901L17.083 10.999H3V12.999Z" fill="white"/>
</g>
<defs>
<clipPath id="clip0_220_1123">
<rect width="24" height="24" fill="white"/>
</clipPath>
</defs>
</svg>
