<svg width="24" height="24" viewBox="0 0 24 24" fill="none" xmlns="http://www.w3.org/2000/svg">
<g clip-path="url(#clip0_1097_4871)">
<path d="M17.5002 0.916992C16.3742 0.934507 15.2727 1.24885 14.307 1.82826C13.3413 2.40768 12.5456 3.23166 12.0002 4.21699C11.4548 3.23166 10.6591 2.40768 9.69344 1.82826C8.72774 1.24885 7.62625 0.934507 6.5002 0.916992C4.70514 0.994983 3.01391 1.78025 1.79599 3.10122C0.578062 4.4222 -0.0675481 6.17152 0.000202431 7.96699C0.000202431 14.742 10.9562 22.567 11.4222 22.899L12.0002 23.308L12.5782 22.899C13.0442 22.569 24.0002 14.742 24.0002 7.96699C24.068 6.17152 23.4223 4.4222 22.2044 3.10122C20.9865 1.78025 19.2953 0.994983 17.5002 0.916992ZM12.0002 20.846C8.7472 18.416 2.0002 12.446 2.0002 7.96699C1.93184 6.70171 2.36657 5.46072 3.20957 4.51469C4.05256 3.56866 5.23544 2.99434 6.5002 2.91699C7.76497 2.99434 8.94784 3.56866 9.79084 4.51469C10.6338 5.46072 11.0686 6.70171 11.0002 7.96699H13.0002C12.9318 6.70171 13.3666 5.46072 14.2096 4.51469C15.0526 3.56866 16.2354 2.99434 17.5002 2.91699C18.765 2.99434 19.9478 3.56866 20.7908 4.51469C21.6338 5.46072 22.0686 6.70171 22.0002 7.96699C22.0002 12.448 15.2532 18.416 12.0002 20.846Z" fill="white"/>
</g>
<path d="M9.35995 3.1199L12.24 6.4799L12.48 6.2399L13.2 4.3199L14.88 2.3999H17.04L20.88 3.1199L22.56 6.4799V10.5599L19.92 15.3599L16.32 18.7199L11.28 21.8399L7.67995 18.2399L2.63995 12.9599L1.19995 7.9199L2.15995 4.3199L4.79995 2.3999L9.35995 3.1199Z" fill="white"/>
<defs>
<clipPath id="clip0_1097_4871">
<rect width="24" height="24" fill="white"/>
</clipPath>
</defs>
</svg>
