<svg width="24" height="24" viewBox="0 0 24 24" fill="none" xmlns="http://www.w3.org/2000/svg">
<g clip-path="url(#clip0_214_196)">
<path d="M22.916 0.690852C22.5769 0.409183 22.1797 0.205934 21.7529 0.0956408C21.3261 -0.0146522 20.8801 -0.0292635 20.447 0.0528519L8.448 2.29985C7.75969 2.4287 7.13814 2.79428 6.69105 3.33324C6.24395 3.8722 5.99948 4.55059 6 5.25085V16.5559C5.39466 16.1959 4.70426 16.004 4 15.9999C3.20888 15.9999 2.43552 16.2344 1.77772 16.674C1.11992 17.1135 0.607234 17.7382 0.304484 18.4691C0.00173312 19.2 -0.0774802 20.0043 0.0768607 20.7802C0.231202 21.5561 0.612165 22.2689 1.17157 22.8283C1.73098 23.3877 2.44372 23.7687 3.21964 23.923C3.99557 24.0773 4.79983 23.9981 5.53074 23.6954C6.26164 23.3926 6.88636 22.8799 7.32588 22.2221C7.76541 21.5643 8 20.791 8 19.9999V9.41985L22 6.79985V13.5609C21.3952 13.1992 20.7047 13.0055 20 12.9999C19.2089 12.9999 18.4355 13.2344 17.7777 13.674C17.1199 14.1135 16.6072 14.7382 16.3045 15.4691C16.0017 16.2 15.9225 17.0043 16.0769 17.7802C16.2312 18.5561 16.6122 19.2689 17.1716 19.8283C17.731 20.3877 18.4437 20.7687 19.2196 20.923C19.9956 21.0773 20.7998 20.9981 21.5307 20.6954C22.2616 20.3926 22.8864 19.8799 23.3259 19.2221C23.7654 18.5643 24 17.791 24 16.9999V2.99985C24.0001 2.55897 23.903 2.12349 23.7156 1.7244C23.5283 1.32532 23.2553 0.972427 22.916 0.690852ZM4 21.9999C3.60444 21.9999 3.21776 21.8826 2.88886 21.6628C2.55996 21.443 2.30362 21.1307 2.15224 20.7652C2.00087 20.3998 1.96126 19.9976 2.03843 19.6097C2.1156 19.2217 2.30608 18.8653 2.58579 18.5856C2.86549 18.3059 3.22186 18.1155 3.60982 18.0383C3.99778 17.9611 4.39992 18.0007 4.76537 18.1521C5.13082 18.3035 5.44318 18.5598 5.66294 18.8887C5.8827 19.2176 6 19.6043 6 19.9999C6 20.5303 5.78929 21.039 5.41422 21.4141C5.03914 21.7891 4.53044 21.9999 4 21.9999ZM8 7.38585V5.25085C7.99994 5.01769 8.08136 4.79183 8.23018 4.61233C8.379 4.43284 8.58586 4.31099 8.815 4.26785L20.815 2.01785C20.9594 1.99067 21.108 1.99564 21.2503 2.03241C21.3925 2.06919 21.5249 2.13686 21.6381 2.23061C21.7512 2.32437 21.8423 2.4419 21.9049 2.57486C21.9674 2.70781 21.9999 2.85292 22 2.99985V4.75985L8 7.38585ZM20 18.9999C19.6044 18.9999 19.2178 18.8826 18.8889 18.6628C18.56 18.443 18.3036 18.1307 18.1522 17.7652C18.0009 17.3998 17.9613 16.9976 18.0384 16.6097C18.1156 16.2217 18.3061 15.8653 18.5858 15.5856C18.8655 15.3059 19.2219 15.1155 19.6098 15.0383C19.9978 14.9611 20.3999 15.0007 20.7654 15.1521C21.1308 15.3035 21.4432 15.5598 21.6629 15.8887C21.8827 16.2176 22 16.6043 22 16.9999C22 17.5303 21.7893 18.039 21.4142 18.4141C21.0391 18.7891 20.5304 18.9999 20 18.9999Z" fill="#FF6666"/>
</g>
<defs>
<clipPath id="clip0_214_196">
<rect width="24" height="24" fill="white"/>
</clipPath>
</defs>
</svg>
