<svg width="24" height="24" viewBox="0 0 24 24" fill="none" xmlns="http://www.w3.org/2000/svg">
<g clip-path="url(#clip0_282_864)">
<path d="M21.0005 24.0002H16.0005V22.0002H21.0005C21.2657 22.0002 21.52 21.8949 21.7076 21.7073C21.8951 21.5198 22.0005 21.2655 22.0005 21.0002V16.0002H24.0005V21.0002C24.0005 21.7959 23.6844 22.5589 23.1218 23.1216C22.5592 23.6842 21.7961 24.0002 21.0005 24.0002Z" fill="white"/>
<path d="M2 8H0V3C0 2.20435 0.31607 1.44129 0.87868 0.87868C1.44129 0.31607 2.20435 0 3 0L8 0V2H3C2.73478 2 2.48043 2.10536 2.29289 2.29289C2.10536 2.48043 2 2.73478 2 3V8Z" fill="white"/>
<path d="M8 24.0002H3C2.20435 24.0002 1.44129 23.6842 0.87868 23.1216C0.31607 22.5589 0 21.7959 0 21.0002L0 16.0002H2V21.0002C2 21.2655 2.10536 21.5198 2.29289 21.7073C2.48043 21.8949 2.73478 22.0002 3 22.0002H8V24.0002Z" fill="white"/>
<path d="M24.0005 8H22.0005V3C22.0005 2.73478 21.8951 2.48043 21.7076 2.29289C21.52 2.10536 21.2657 2 21.0005 2H16.0005V0H21.0005C21.7961 0 22.5592 0.31607 23.1218 0.87868C23.6844 1.44129 24.0005 2.20435 24.0005 3V8Z" fill="white"/>
<path d="M11.9995 11C11.2084 11 10.435 10.7654 9.77723 10.3259C9.11944 9.88635 8.60675 9.26164 8.304 8.53074C8.00124 7.79983 7.92203 6.99556 8.07637 6.21964C8.23071 5.44372 8.61168 4.73098 9.17109 4.17157C9.7305 3.61216 10.4432 3.2312 11.2192 3.07686C11.9951 2.92252 12.7993 3.00173 13.5302 3.30448C14.2612 3.60723 14.8859 4.11992 15.3254 4.77772C15.7649 5.43552 15.9995 6.20888 15.9995 7C15.9995 8.06087 15.5781 9.07828 14.8279 9.82843C14.0778 10.5786 13.0604 11 11.9995 11ZM11.9995 5C11.604 5 11.2173 5.1173 10.8884 5.33706C10.5595 5.55683 10.3031 5.86918 10.1518 6.23463C10.0004 6.60009 9.96077 7.00222 10.0379 7.39018C10.1151 7.77814 10.3056 8.13451 10.5853 8.41422C10.865 8.69392 11.2214 8.8844 11.6093 8.96157C11.9973 9.03874 12.3994 8.99914 12.7649 8.84776C13.1303 8.69639 13.4427 8.44004 13.6625 8.11114C13.8822 7.78224 13.9995 7.39556 13.9995 7C13.9995 6.46957 13.7888 5.96086 13.4137 5.58579C13.0387 5.21072 12.5299 5 11.9995 5V5Z" fill="white"/>
<path d="M18.9995 20.0002H16.9995V16.0002C16.9995 15.735 16.8942 15.4807 16.7066 15.2931C16.5191 15.1056 16.2647 15.0002 15.9995 15.0002H7.99951C7.7343 15.0002 7.47994 15.1056 7.29241 15.2931C7.10487 15.4807 6.99951 15.735 6.99951 16.0002V20.0002H4.99951V16.0002C4.99951 15.2046 5.31558 14.4415 5.87819 13.8789C6.4408 13.3163 7.20386 13.0002 7.99951 13.0002H15.9995C16.7952 13.0002 17.5582 13.3163 18.1208 13.8789C18.6834 14.4415 18.9995 15.2046 18.9995 16.0002V20.0002Z" fill="white"/>
</g>
<defs>
<clipPath id="clip0_282_864">
<rect width="24" height="24" fill="white"/>
</clipPath>
</defs>
</svg>
