<svg width="40" height="40" viewBox="0 0 40 40" fill="none" xmlns="http://www.w3.org/2000/svg">
<path d="M22 27V13H26V27H22ZM14 27V13H18V27H14Z" fill="#FF6666"/>
<path d="M40 40H0V5C0 3.67392 0.526784 2.40215 1.46447 1.46447C2.40215 0.526784 3.67392 0 5 0L35 0C36.3261 0 37.5979 0.526784 38.5355 1.46447C39.4732 2.40215 40 3.67392 40 5V40ZM3.33333 36.6667H36.6667V5C36.6667 4.55797 36.4911 4.13405 36.1785 3.82149C35.866 3.50893 35.442 3.33333 35 3.33333H5C4.55797 3.33333 4.13405 3.50893 3.82149 3.82149C3.50893 4.13405 3.33333 4.55797 3.33333 5V36.6667Z" fill="#FF6666"/>
</svg>
