<svg width="24" height="24" viewBox="0 0 24 24" fill="none" xmlns="http://www.w3.org/2000/svg">
<g clip-path="url(#clip0_214_212)">
<path d="M21 24.0007H19V18.9577C18.9992 18.1737 18.6874 17.4221 18.133 16.8677C17.5787 16.3133 16.827 16.0015 16.043 16.0007H7.957C7.173 16.0015 6.42134 16.3133 5.86696 16.8677C5.31259 17.4221 5.00079 18.1737 5 18.9577V24.0007H3V18.9577C3.00159 17.6435 3.52435 16.3836 4.45363 15.4544C5.3829 14.5251 6.64281 14.0023 7.957 14.0007H16.043C17.3572 14.0023 18.6171 14.5251 19.5464 15.4544C20.4756 16.3836 20.9984 17.6435 21 18.9577V24.0007Z" fill="#FF6666"/>
<path d="M12 12C10.8133 12 9.65328 11.6481 8.66658 10.9888C7.67989 10.3295 6.91085 9.39246 6.45673 8.2961C6.0026 7.19975 5.88378 5.99335 6.11529 4.82946C6.3468 3.66558 6.91825 2.59648 7.75736 1.75736C8.59648 0.918247 9.66558 0.346802 10.8295 0.115291C11.9933 -0.11622 13.1997 0.00259972 14.2961 0.456726C15.3925 0.910851 16.3295 1.67989 16.9888 2.66658C17.6481 3.65328 18 4.81331 18 6C17.9984 7.59081 17.3658 9.11602 16.2409 10.2409C15.116 11.3658 13.5908 11.9984 12 12ZM12 2C11.2089 2 10.4355 2.2346 9.77772 2.67412C9.11993 3.11365 8.60724 3.73836 8.30448 4.46927C8.00173 5.20017 7.92252 6.00444 8.07686 6.78036C8.2312 7.55629 8.61217 8.26902 9.17158 8.82843C9.73099 9.38784 10.4437 9.7688 11.2196 9.92314C11.9956 10.0775 12.7998 9.99827 13.5307 9.69552C14.2616 9.39277 14.8864 8.88008 15.3259 8.22228C15.7654 7.56449 16 6.79113 16 6C16 4.93914 15.5786 3.92172 14.8284 3.17158C14.0783 2.42143 13.0609 2 12 2Z" fill="#FF6666"/>
</g>
<defs>
<clipPath id="clip0_214_212">
<rect width="24" height="24" fill="white"/>
</clipPath>
</defs>
</svg>
