<svg width="22" height="22" viewBox="0 0 22 22" fill="none" xmlns="http://www.w3.org/2000/svg">
<g clip-path="url(#clip0_282_879)">
<path d="M20.1668 3.66667H15.5835V1.83333C15.5835 1.3471 15.3903 0.880788 15.0465 0.536971C14.7027 0.193154 14.2364 0 13.7502 0L8.25016 0C7.76393 0 7.29762 0.193154 6.9538 0.536971C6.60998 0.880788 6.41683 1.3471 6.41683 1.83333V3.66667H1.8335V5.5H3.66683V19.25C3.66683 19.9793 3.95656 20.6788 4.47229 21.1945C4.98801 21.7103 5.68748 22 6.41683 22H15.5835C16.3128 22 17.0123 21.7103 17.528 21.1945C18.0438 20.6788 18.3335 19.9793 18.3335 19.25V5.5H20.1668V3.66667ZM8.25016 1.83333H13.7502V3.66667H8.25016V1.83333ZM16.5002 19.25C16.5002 19.4931 16.4036 19.7263 16.2317 19.8982C16.0598 20.0701 15.8266 20.1667 15.5835 20.1667H6.41683C6.17371 20.1667 5.94056 20.0701 5.76865 19.8982C5.59674 19.7263 5.50016 19.4931 5.50016 19.25V5.5H16.5002V19.25Z" fill="white"/>
<path d="M10.0833 9.16602H8.25V16.4993H10.0833V9.16602Z" fill="white"/>
<path d="M13.7503 9.16602H11.917V16.4993H13.7503V9.16602Z" fill="white"/>
</g>
<defs>
<clipPath id="clip0_282_879">
<rect width="22" height="22" fill="white"/>
</clipPath>
</defs>
</svg>
