<svg width="30" height="30" viewBox="0 0 30 30" fill="none" xmlns="http://www.w3.org/2000/svg">
<g clip-path="url(#clip0_84_638)">
<path d="M29.9999 30H15.0224C12.0961 29.9986 9.23419 29.1413 6.78905 27.5337C4.34392 25.9261 2.4224 23.6385 1.26117 20.9525C0.0999375 18.2665 -0.250286 15.2995 0.253635 12.4169C0.757557 9.53436 2.09361 6.86215 4.09724 4.72943C6.10087 2.59671 8.68456 1.09661 11.5301 0.413923C14.3756 -0.268769 17.3587 -0.104245 20.1118 0.887232C22.865 1.87871 25.2681 3.65383 27.025 5.99396C28.782 8.33409 29.816 11.137 29.9999 14.0575V14.1363V30ZM15.0224 2.5C11.7072 2.5 8.52778 3.81696 6.18358 6.16117C3.83937 8.50537 2.52241 11.6848 2.52241 15C2.52241 18.3152 3.83937 21.4946 6.18358 23.8388C8.52778 26.183 11.7072 27.5 15.0224 27.5H27.4999V14.1763C27.2856 11.0116 25.8783 8.04629 23.5623 5.87904C21.2464 3.71179 18.1943 2.50415 15.0224 2.5V2.5Z" fill="white"/>
<path d="M16.2505 8.74988H8.75049V11.2499H16.2505V8.74988Z" fill="white"/>
<path d="M21.2505 13.7502H8.75049V16.2503H21.2505V13.7502Z" fill="white"/>
<path d="M21.2505 18.75H8.75049V21.25H21.2505V18.75Z" fill="white"/>
</g>
<defs>
<clipPath id="clip0_84_638">
<rect width="30" height="30" fill="white"/>
</clipPath>
</defs>
</svg>
