<svg width="30" height="30" viewBox="0 0 30 30" fill="none" xmlns="http://www.w3.org/2000/svg">
<circle cx="15" cy="15" r="13.5" stroke="white" stroke-width="3"/>
<g clip-path="url(#clip0_91_208)">
<path d="M21.75 24.0005H20.25V20.2182C20.2494 19.6302 20.0156 19.0665 19.5998 18.6507C19.184 18.2349 18.6203 18.0011 18.0322 18.0005H11.9677C11.3797 18.0011 10.816 18.2349 10.4002 18.6507C9.98444 19.0665 9.7506 19.6302 9.75 20.2182V24.0005H8.25V20.2182C8.25119 19.2326 8.64326 18.2877 9.34022 17.5907C10.0372 16.8938 10.9821 16.5017 11.9677 16.5005H18.0322C19.0179 16.5017 19.9628 16.8938 20.6598 17.5907C21.3567 18.2877 21.7488 19.2326 21.75 20.2182V24.0005Z" fill="white"/>
<path d="M15 15C14.11 15 13.24 14.7361 12.4999 14.2416C11.7599 13.7471 11.1831 13.0443 10.8425 12.2221C10.5019 11.3998 10.4128 10.495 10.5865 9.6221C10.7601 8.74918 11.1887 7.94736 11.818 7.31802C12.4474 6.68869 13.2492 6.2601 14.1221 6.08647C14.995 5.91283 15.8998 6.00195 16.7221 6.34254C17.5443 6.68314 18.2471 7.25991 18.7416 7.99994C19.2361 8.73996 19.5 9.60999 19.5 10.5C19.4988 11.6931 19.0243 12.837 18.1807 13.6807C17.337 14.5243 16.1931 14.9988 15 15ZM15 7.5C14.4067 7.5 13.8266 7.67595 13.3333 8.00559C12.8399 8.33524 12.4554 8.80377 12.2284 9.35195C12.0013 9.90013 11.9419 10.5033 12.0576 11.0853C12.1734 11.6672 12.4591 12.2018 12.8787 12.6213C13.2982 13.0409 13.8328 13.3266 14.4147 13.4424C14.9967 13.5581 15.5999 13.4987 16.1481 13.2716C16.6962 13.0446 17.1648 12.6601 17.4944 12.1667C17.8241 11.6734 18 11.0933 18 10.5C18 9.70435 17.6839 8.94129 17.1213 8.37868C16.5587 7.81607 15.7957 7.5 15 7.5Z" fill="white"/>
</g>
<defs>
<clipPath id="clip0_91_208">
<rect width="18" height="18" fill="white" transform="translate(6 6)"/>
</clipPath>
</defs>
</svg>
