<svg width="20" height="20" viewBox="0 0 20 20" fill="none" xmlns="http://www.w3.org/2000/svg">
<g clip-path="url(#clip0_84_649)">
<path d="M9.99992 3.33333C10.9204 3.33333 11.6666 2.58714 11.6666 1.66667C11.6666 0.746192 10.9204 0 9.99992 0C9.07944 0 8.33325 0.746192 8.33325 1.66667C8.33325 2.58714 9.07944 3.33333 9.99992 3.33333Z" fill="white"/>
<path d="M9.99992 11.6669C10.9204 11.6669 11.6666 10.9208 11.6666 10.0003C11.6666 9.07981 10.9204 8.33362 9.99992 8.33362C9.07944 8.33362 8.33325 9.07981 8.33325 10.0003C8.33325 10.9208 9.07944 11.6669 9.99992 11.6669Z" fill="white"/>
<path d="M9.99992 19.9997C10.9204 19.9997 11.6666 19.2535 11.6666 18.3331C11.6666 17.4126 10.9204 16.6664 9.99992 16.6664C9.07944 16.6664 8.33325 17.4126 8.33325 18.3331C8.33325 19.2535 9.07944 19.9997 9.99992 19.9997Z" fill="white"/>
</g>
<defs>
<clipPath id="clip0_84_649">
<rect width="20" height="20" fill="white"/>
</clipPath>
</defs>
</svg>
