<svg width="31" height="28" viewBox="0 0 31 28" fill="none" xmlns="http://www.w3.org/2000/svg">
<path d="M21.8811 0C20.4735 0.0218937 19.0966 0.414817 17.8895 1.13909C16.6824 1.86336 15.6878 2.89334 15.0061 4.125C14.3244 2.89334 13.3297 1.86336 12.1226 1.13909C10.9155 0.414817 9.53861 0.0218937 8.13105 0C5.88723 0.0974884 3.77318 1.07907 2.25078 2.73029C0.728376 4.38151 -0.0786368 6.56816 0.00605138 8.8125C0.00605138 17.2812 13.7011 27.0625 14.2836 27.4775L15.0061 27.9888L15.7286 27.4775C16.3111 27.065 30.0061 17.2812 30.0061 8.8125C30.0907 6.56816 29.2837 4.38151 27.7613 2.73029C26.2389 1.07907 24.1249 0.0974884 21.8811 0Z" fill="white"/>
</svg>
