<svg width="16" height="16" viewBox="0 0 16 16" fill="none" xmlns="http://www.w3.org/2000/svg">
<g clip-path="url(#clip0_27_174)">
<path d="M4.65535 16.0047C3.73117 16.0069 2.82715 15.7346 2.0579 15.2224C1.28865 14.7102 0.688806 13.9811 0.334411 13.1276C-0.0199827 12.2741 -0.112967 11.3345 0.0672461 10.4281C0.247459 9.52164 0.692755 8.68912 1.34668 8.03606L8.41335 0.979391C9.03882 0.352508 9.8877 -0.000233635 10.7732 -0.00123383C11.6588 -0.00223402 12.5085 0.348589 13.1353 0.974058C13.7622 1.59953 14.115 2.44841 14.116 3.33395C14.117 4.2195 13.7662 5.06917 13.1407 5.69606L6.07335 12.7521C5.69112 13.1163 5.18336 13.3195 4.65535 13.3195C4.12733 13.3195 3.61957 13.1163 3.23735 12.7521C3.05139 12.5663 2.90388 12.3457 2.80323 12.1029C2.70258 11.8601 2.65077 11.5999 2.65077 11.3371C2.65077 11.0742 2.70258 10.814 2.80323 10.5712C2.90388 10.3284 3.05139 10.1078 3.23735 9.92206L9.83335 3.33806L10.7787 4.28139L4.18268 10.8667C4.0577 10.9917 3.98749 11.1613 3.98749 11.3381C3.98749 11.5148 4.0577 11.6844 4.18268 11.8094C4.31004 11.9309 4.47931 11.9987 4.65535 11.9987C4.83138 11.9987 5.00066 11.9309 5.12801 11.8094L12.2 4.75272C12.5753 4.37656 12.7858 3.86672 12.7852 3.33537C12.7845 2.80401 12.5728 2.29467 12.1967 1.91939C11.8205 1.54411 11.3107 1.33363 10.7793 1.33426C10.248 1.33488 9.73863 1.54656 9.36335 1.92272L2.29201 8.97873C1.66646 9.60552 1.31551 10.4551 1.31639 11.3407C1.31726 12.2262 1.66989 13.0752 2.29668 13.7007C2.92348 14.3263 3.7731 14.6772 4.65865 14.6763C5.54419 14.6755 6.39312 14.3229 7.01868 13.6961L15.0327 5.69606L15.978 6.63939L7.96402 14.6394C7.5295 15.0735 7.01356 15.4176 6.44579 15.6519C5.87801 15.8862 5.26956 16.0061 4.65535 16.0047Z" fill="#FEA3A3"/>
</g>
<defs>
<clipPath id="clip0_27_174">
<rect width="16" height="16" fill="white"/>
</clipPath>
</defs>
</svg>
