<svg width="16" height="16" viewBox="0 0 16 16" fill="none" xmlns="http://www.w3.org/2000/svg">
<g clip-path="url(#clip0_27_173)">
<path d="M0.962505 4.44583C0.739276 4.50962 0.536571 4.63058 0.374445 4.79676C0.21232 4.96293 0.0963949 5.16856 0.0381403 5.3933C-0.0201143 5.61803 -0.018679 5.85408 0.0423041 6.07809C0.103287 6.3021 0.221704 6.50631 0.385838 6.6705L2.6605 8.9425V13.3332H7.05584L9.34584 15.6198C9.46875 15.7438 9.61495 15.8422 9.77604 15.9095C9.93713 15.9768 10.1099 16.0116 10.2845 16.0118C10.3992 16.0116 10.5135 15.9968 10.6245 15.9678C10.8491 15.9112 11.0549 15.7965 11.2211 15.6351C11.3873 15.4737 11.508 15.2714 11.5712 15.0485L15.9938 0.0138397L0.962505 4.44583ZM1.33317 5.72783L12.6852 2.38117L3.99517 11.0572V8.3905L1.33317 5.72783ZM10.2932 14.6772L7.60851 11.9998H4.94184L13.6305 3.3185L10.2932 14.6772Z" fill="#FEA3A3"/>
</g>
<defs>
<clipPath id="clip0_27_173">
<rect width="16" height="16" fill="white"/>
</clipPath>
</defs>
</svg>
