<svg width="50" height="50" viewBox="0 0 50 50" fill="none" xmlns="http://www.w3.org/2000/svg">
<circle cx="25" cy="25" r="23.5" stroke="white" stroke-width="3"/>
<g clip-path="url(#clip0_165_552)">
<path d="M36.25 40.0008H33.75V33.697C33.749 32.717 33.3593 31.7774 32.6663 31.0845C31.9733 30.3915 31.0338 30.0017 30.0537 30.0008H19.9462C18.9662 30.0017 18.0267 30.3915 17.3337 31.0845C16.6407 31.7774 16.251 32.717 16.25 33.697V40.0008H13.75V33.697C13.752 32.0543 14.4054 30.4794 15.567 29.3178C16.7286 28.1562 18.3035 27.5027 19.9462 27.5008H30.0537C31.6965 27.5027 33.2714 28.1562 34.433 29.3178C35.5946 30.4794 36.248 32.0543 36.25 33.697V40.0008Z" fill="white"/>
<path d="M24.9999 24.9999C23.5165 24.9999 22.0665 24.5601 20.8331 23.7359C19.5997 22.9118 18.6384 21.7405 18.0708 20.37C17.5031 18.9996 17.3546 17.4916 17.644 16.0367C17.9334 14.5819 18.6477 13.2455 19.6966 12.1966C20.7455 11.1477 22.0818 10.4334 23.5367 10.144C24.9916 9.85464 26.4996 10.0032 27.87 10.5708C29.2405 11.1385 30.4118 12.0998 31.2359 13.3331C32.06 14.5665 32.4999 16.0166 32.4999 17.4999C32.4979 19.4884 31.7071 21.3949 30.301 22.801C28.8949 24.2071 26.9884 24.9979 24.9999 24.9999V24.9999ZM24.9999 12.4999C24.011 12.4999 23.0443 12.7932 22.222 13.3426C21.3998 13.892 20.7589 14.6729 20.3805 15.5865C20.002 16.5001 19.903 17.5055 20.096 18.4754C20.2889 19.4453 20.7651 20.3362 21.4643 21.0355C22.1636 21.7347 23.0545 22.2109 24.0244 22.4038C24.9943 22.5968 25.9997 22.4978 26.9133 22.1193C27.8269 21.7409 28.6078 21.1 29.1572 20.2778C29.7066 19.4555 29.9999 18.4888 29.9999 17.4999C29.9999 16.1738 29.4731 14.9021 28.5354 13.9644C27.5977 13.0267 26.326 12.4999 24.9999 12.4999Z" fill="white"/>
</g>
<defs>
<clipPath id="clip0_165_552">
<rect width="30" height="30" fill="white" transform="translate(10 10)"/>
</clipPath>
</defs>
</svg>
