<svg width="30" height="30" viewBox="0 0 30 30" fill="none" xmlns="http://www.w3.org/2000/svg">
<g clip-path="url(#clip0_663_5113)">
<path d="M26.25 30.001H23.75V23.6972C23.749 22.7172 23.3593 21.7776 22.6663 21.0847C21.9733 20.3917 21.0338 20.002 20.0537 20.001H9.94625C8.96625 20.002 8.02667 20.3917 7.3337 21.0847C6.64074 21.7776 6.25099 22.7172 6.25 23.6972V30.001H3.75V23.6972C3.75198 22.0545 4.40544 20.4796 5.56703 19.318C6.72862 18.1564 8.30351 17.503 9.94625 17.501H20.0537C21.6965 17.503 23.2714 18.1564 24.433 19.318C25.5946 20.4796 26.248 22.0545 26.25 23.6972V30.001Z" fill="#FF6666"/>
<path d="M15 15C13.5166 15 12.0666 14.5601 10.8332 13.736C9.59986 12.9119 8.63856 11.7406 8.07091 10.3701C7.50325 8.99968 7.35472 7.49168 7.64411 6.03683C7.9335 4.58197 8.64781 3.2456 9.6967 2.1967C10.7456 1.14781 12.082 0.433503 13.5368 0.144114C14.9917 -0.145275 16.4997 0.00324965 17.8701 0.570907C19.2406 1.13856 20.4119 2.09986 21.236 3.33323C22.0601 4.5666 22.5 6.01664 22.5 7.5C22.498 9.48852 21.7072 11.395 20.3011 12.8011C18.895 14.2072 16.9885 14.998 15 15V15ZM15 2.5C14.0111 2.5 13.0444 2.79325 12.2222 3.34266C11.3999 3.89206 10.759 4.67296 10.3806 5.58659C10.0022 6.50022 9.90315 7.50555 10.0961 8.47546C10.289 9.44536 10.7652 10.3363 11.4645 11.0355C12.1637 11.7348 13.0546 12.211 14.0246 12.4039C14.9945 12.5969 15.9998 12.4978 16.9134 12.1194C17.8271 11.741 18.6079 11.1001 19.1574 10.2779C19.7068 9.45561 20 8.48891 20 7.5C20 6.17392 19.4732 4.90215 18.5355 3.96447C17.5979 3.02679 16.3261 2.5 15 2.5Z" fill="#FF6666"/>
</g>
<defs>
<clipPath id="clip0_663_5113">
<rect width="30" height="30" fill="white"/>
</clipPath>
</defs>
</svg>
