<svg width="24" height="24" viewBox="0 0 24 24" fill="none" xmlns="http://www.w3.org/2000/svg">
<g clip-path="url(#clip0_663_4836)">
<path d="M11.9998 4C13.1043 4 13.9997 3.10457 13.9997 2C13.9997 0.89543 13.1043 0 11.9998 0C10.8952 0 9.99976 0.89543 9.99976 2C9.99976 3.10457 10.8952 4 11.9998 4Z" fill="#FF6666"/>
<path d="M11.9998 14C13.1043 14 13.9997 13.1046 13.9997 12C13.9997 10.8954 13.1043 10 11.9998 10C10.8952 10 9.99976 10.8954 9.99976 12C9.99976 13.1046 10.8952 14 11.9998 14Z" fill="#FF6666"/>
<path d="M11.9998 24C13.1043 24 13.9997 23.1046 13.9997 22C13.9997 20.8954 13.1043 20 11.9998 20C10.8952 20 9.99976 20.8954 9.99976 22C9.99976 23.1046 10.8952 24 11.9998 24Z" fill="#FF6666"/>
</g>
<defs>
<clipPath id="clip0_663_4836">
<rect width="24" height="24" fill="white"/>
</clipPath>
</defs>
</svg>
