<svg width="50" height="50" viewBox="0 0 50 50" fill="none" xmlns="http://www.w3.org/2000/svg">
<g clip-path="url(#clip0_58_283)">
<path d="M49.9997 50H25.0372C20.1601 49.9977 15.3902 48.5689 11.3149 45.8895C7.2397 43.2102 4.03717 39.3974 2.10178 34.9208C0.1664 30.4441 -0.417306 25.4991 0.422563 20.6948C1.26243 15.8906 3.48919 11.4369 6.82857 7.88238C10.168 4.32784 14.4741 1.82769 19.2166 0.689871C23.9592 -0.447948 28.9309 -0.173741 33.5196 1.47872C38.1082 3.13118 42.1133 6.08972 45.0415 9.98993C47.9698 13.8901 49.6932 18.5617 49.9997 23.4292V23.5604V50ZM25.0372 4.16667C19.5118 4.16667 14.2128 6.3616 10.3058 10.2686C6.39879 14.1756 4.20385 19.4747 4.20385 25C4.20385 30.5253 6.39879 35.8244 10.3058 39.7314C14.2128 43.6384 19.5118 45.8333 25.0372 45.8333H45.833V23.6271C45.4758 18.3527 43.1303 13.4105 39.2704 9.7984C35.4104 6.18632 30.3236 4.17358 25.0372 4.16667Z" fill="#FF6666"/>
<path d="M27.084 14.583H14.584V18.7497H27.084V14.583Z" fill="#FF6666"/>
<path d="M35.4173 22.917H14.584V27.0837H35.4173V22.917Z" fill="#FF6666"/>
<path d="M35.4173 31.2501H14.584V35.4168H35.4173V31.2501Z" fill="#FF6666"/>
</g>
<defs>
<clipPath id="clip0_58_283">
<rect width="50" height="50" fill="white"/>
</clipPath>
</defs>
</svg>
