<svg width="50" height="50" viewBox="0 0 50 50" fill="none" xmlns="http://www.w3.org/2000/svg">
<g clip-path="url(#clip0_58_271)">
<path d="M24.9997 8.33333C27.3008 8.33333 29.1663 6.46785 29.1663 4.16667C29.1663 1.86548 27.3008 0 24.9997 0C22.6985 0 20.833 1.86548 20.833 4.16667C20.833 6.46785 22.6985 8.33333 24.9997 8.33333Z" fill="#FF6666"/>
<path d="M24.9997 29.1673C27.3008 29.1673 29.1663 27.3018 29.1663 25.0006C29.1663 22.6995 27.3008 20.834 24.9997 20.834C22.6985 20.834 20.833 22.6995 20.833 25.0006C20.833 27.3018 22.6985 29.1673 24.9997 29.1673Z" fill="#FF6666"/>
<path d="M24.9997 49.9994C27.3008 49.9994 29.1663 48.1339 29.1663 45.8327C29.1663 43.5315 27.3008 41.666 24.9997 41.666C22.6985 41.666 20.833 43.5315 20.833 45.8327C20.833 48.1339 22.6985 49.9994 24.9997 49.9994Z" fill="#FF6666"/>
</g>
<defs>
<clipPath id="clip0_58_271">
<rect width="50" height="50" fill="white"/>
</clipPath>
</defs>
</svg>
