<svg width="50" height="50" viewBox="0 0 50 50" fill="none" xmlns="http://www.w3.org/2000/svg">
<g clip-path="url(#clip0_58_277)">
<path d="M36.4588 1.91077C34.1128 1.94726 31.8181 2.60213 29.8062 3.80925C27.7943 5.01637 26.1366 6.73299 25.0004 8.78577C23.8643 6.73299 22.2066 5.01637 20.1947 3.80925C18.1828 2.60213 15.888 1.94726 13.5421 1.91077C9.8024 2.07325 6.279 3.70921 3.74166 6.46125C1.20432 9.21329 -0.140705 12.8577 0.000442077 16.5983C0.000442077 30.7128 22.8254 47.0149 23.7963 47.7066L25.0004 48.5587L26.2046 47.7066C27.1754 47.0191 50.0004 30.7128 50.0004 16.5983C50.1416 12.8577 48.7966 9.21329 46.2592 6.46125C43.7219 3.70921 40.1985 2.07325 36.4588 1.91077ZM25.0004 43.4295C18.2234 38.367 4.16711 25.9295 4.16711 16.5983C4.02469 13.9623 4.93037 11.3769 6.68662 9.40597C8.44286 7.43508 10.9072 6.23858 13.5421 6.07743C16.177 6.23858 18.6414 7.43508 20.3976 9.40597C22.1538 11.3769 23.0595 13.9623 22.9171 16.5983H27.0838C26.9414 13.9623 27.847 11.3769 29.6033 9.40597C31.3595 7.43508 33.8238 6.23858 36.4588 6.07743C39.0937 6.23858 41.558 7.43508 43.3143 9.40597C45.0705 11.3769 45.9762 13.9623 45.8338 16.5983C45.8338 25.9337 31.7775 38.367 25.0004 43.4295Z" fill="#FF6666"/>
</g>
<defs>
<clipPath id="clip0_58_277">
<rect width="50" height="50" fill="white"/>
</clipPath>
</defs>
</svg>
