<svg width="50" height="50" viewBox="0 0 50 50" fill="none" xmlns="http://www.w3.org/2000/svg">
<circle cx="25" cy="25" r="23.5" stroke="#FF6666" stroke-width="3"/>
<g clip-path="url(#clip0_58_265)">
<path d="M36.25 40.0007H33.75V33.697C33.749 32.717 33.3593 31.7774 32.6663 31.0844C31.9733 30.3915 31.0338 30.0017 30.0537 30.0007H19.9462C18.9662 30.0017 18.0267 30.3915 17.3337 31.0844C16.6407 31.7774 16.251 32.717 16.25 33.697V40.0007H13.75V33.697C13.752 32.0542 14.4054 30.4794 15.567 29.3178C16.7286 28.1562 18.3035 27.5027 19.9462 27.5007H30.0537C31.6965 27.5027 33.2714 28.1562 34.433 29.3178C35.5946 30.4794 36.248 32.0542 36.25 33.697V40.0007Z" fill="#FF6666"/>
<path d="M24.9999 24.9999C23.5166 24.9999 22.0665 24.56 20.8332 23.7359C19.5998 22.9118 18.6385 21.7405 18.0708 20.37C17.5032 18.9996 17.3547 17.4916 17.6441 16.0367C17.9334 14.5818 18.6477 13.2455 19.6966 12.1966C20.7455 11.1477 22.0819 10.4334 23.5368 10.144C24.9916 9.8546 26.4996 10.0031 27.8701 10.5708C29.2405 11.1384 30.4119 12.0997 31.236 13.3331C32.0601 14.5665 32.4999 16.0165 32.4999 17.4999C32.498 19.4884 31.7071 21.3949 30.3011 22.801C28.895 24.2071 26.9885 24.9979 24.9999 24.9999ZM24.9999 12.4999C24.011 12.4999 23.0443 12.7931 22.2221 13.3425C21.3998 13.8919 20.759 14.6728 20.3805 15.5865C20.0021 16.5001 19.9031 17.5054 20.096 18.4753C20.2889 19.4452 20.7651 20.3362 21.4644 21.0354C22.1637 21.7347 23.0546 22.2109 24.0245 22.4038C24.9944 22.5967 25.9997 22.4977 26.9134 22.1193C27.827 21.7408 28.6079 21.1 29.1573 20.2777C29.7067 19.4555 29.9999 18.4888 29.9999 17.4999C29.9999 16.1738 29.4732 14.902 28.5355 13.9643C27.5978 13.0267 26.326 12.4999 24.9999 12.4999Z" fill="#FF6666"/>
</g>
<defs>
<clipPath id="clip0_58_265">
<rect width="30" height="30" fill="white" transform="translate(10 10)"/>
</clipPath>
</defs>
</svg>
