<svg width="50" height="48" viewBox="0 0 50 48" fill="none" xmlns="http://www.w3.org/2000/svg">
<path d="M36.4588 0.910645C34.1129 0.947134 31.8181 1.60201 29.8062 2.80913C27.7943 4.01625 26.1366 5.73287 25.0005 7.78564C23.8643 5.73287 22.2066 4.01625 20.1947 2.80913C18.1828 1.60201 15.8881 0.947134 13.5421 0.910645C9.80242 1.07313 6.27901 2.70909 3.74167 5.46113C1.20433 8.21317 -0.14069 11.8576 0.000457337 15.5981C0.000457337 29.7127 22.8255 46.0148 23.7963 46.7065L25.0005 47.5586L26.2046 46.7065C27.1755 46.019 50.0005 29.7127 50.0005 15.5981C50.1416 11.8576 48.7966 8.21317 46.2592 5.46113C43.7219 2.70909 40.1985 1.07313 36.4588 0.910645V0.910645ZM25.0005 42.4294C18.2234 37.3669 4.16712 24.9294 4.16712 15.5981C4.02471 12.9621 4.93039 10.3767 6.68663 8.40585C8.44288 6.43496 10.9072 5.23846 13.5421 5.07731C16.1771 5.23846 18.6414 6.43496 20.3976 8.40585C22.1539 10.3767 23.0595 12.9621 22.9171 15.5981H27.0838C26.9414 12.9621 27.8471 10.3767 29.6033 8.40585C31.3595 6.43496 33.8239 5.23846 36.4588 5.07731C39.0937 5.23846 41.558 6.43496 43.3143 8.40585C45.0705 10.3767 45.9762 12.9621 45.8338 15.5981C45.8338 24.9336 31.7775 37.3669 25.0005 42.4294Z" fill="white"/>
</svg>
