<svg width="24" height="24" viewBox="0 0 24 24" fill="none" xmlns="http://www.w3.org/2000/svg">
<g clip-path="url(#clip0_505_5302)">
<path d="M11.9998 4C13.1044 4 13.9998 3.10457 13.9998 2C13.9998 0.89543 13.1044 0 11.9998 0C10.8953 0 9.99984 0.89543 9.99984 2C9.99984 3.10457 10.8953 4 11.9998 4Z" fill="white"/>
<path d="M11.9998 14.0005C13.1044 14.0005 13.9998 13.1051 13.9998 12.0005C13.9998 10.8959 13.1044 10.0005 11.9998 10.0005C10.8953 10.0005 9.99984 10.8959 9.99984 12.0005C9.99984 13.1051 10.8953 14.0005 11.9998 14.0005Z" fill="white"/>
<path d="M11.9998 23.9995C13.1044 23.9995 13.9998 23.1041 13.9998 21.9995C13.9998 20.8949 13.1044 19.9995 11.9998 19.9995C10.8953 19.9995 9.99984 20.8949 9.99984 21.9995C9.99984 23.1041 10.8953 23.9995 11.9998 23.9995Z" fill="white"/>
</g>
<defs>
<clipPath id="clip0_505_5302">
<rect width="24" height="24" fill="white"/>
</clipPath>
</defs>
</svg>
