<svg width="50" height="50" viewBox="0 0 50 50" fill="none" xmlns="http://www.w3.org/2000/svg">
<g clip-path="url(#clip0_1097_4871)">
<path d="M36.4589 1.91064C34.113 1.94713 31.8182 2.60201 29.8063 3.80913C27.7945 5.01625 26.1367 6.73287 25.0006 8.78564C23.8644 6.73287 22.2067 5.01625 20.1948 3.80913C18.1829 2.60201 15.8882 1.94713 13.5422 1.91064C9.80253 2.07313 6.27912 3.70909 3.74178 6.46113C1.20444 9.21317 -0.140583 12.8576 0.000564148 16.5981C0.000564148 30.7127 22.8256 47.0148 23.7964 47.7065L25.0006 48.5586L26.2047 47.7065C27.1756 47.019 50.0006 30.7127 50.0006 16.5981C50.1417 12.8576 48.7967 9.21317 46.2594 6.46113C43.722 3.70909 40.1986 2.07313 36.4589 1.91064V1.91064ZM25.0006 43.4294C18.2235 38.3669 4.16723 25.9294 4.16723 16.5981C4.02482 13.9621 4.93049 11.3767 6.68674 9.40585C8.44298 7.43496 10.9073 6.23846 13.5422 6.07731C16.1772 6.23846 18.6415 7.43496 20.3977 9.40585C22.154 11.3767 23.0596 13.9621 22.9172 16.5981H27.0839C26.9415 13.9621 27.8472 11.3767 29.6034 9.40585C31.3596 7.43496 33.824 6.23846 36.4589 6.07731C39.0938 6.23846 41.5581 7.43496 43.3144 9.40585C45.0706 11.3767 45.9763 13.9621 45.8339 16.5981C45.8339 25.9336 31.7776 38.3669 25.0006 43.4294Z" fill="white"/>
</g>
<path d="M19.5 6.5L25.5 13.5L26 13L27.5 9L31 5H35.5L43.5 6.5L47 13.5V22L41.5 32L34 39L23.5 45.5L16 38L5.5 27L2.5 16.5L4.5 9L10 5L19.5 6.5Z" fill="white"/>
<defs>
<clipPath id="clip0_1097_4871">
<rect width="50" height="50" fill="white"/>
</clipPath>
</defs>
</svg>
